<?xml version="1.0" encoding="UTF-8"?>
<svg id="SVGRoot" width="750px" height="250px" version="1.1" viewBox="0 0 750 250" xmlns="http://www.w3.org/2000/svg"><g display="none"><rect y=".997397" width="749.533" height="249.003" fill="#a4ffff" fill-opacity=".901961"/></g><g><flowRoot fill="#000000" font-family="sans-serif" font-size="40px" letter-spacing="0px" word-spacing="0px" style="line-height:1.25" xml:space="preserve"><flowRegion><rect y="3.52278" width="218.193" height="245.467"/></flowRegion><flowPara/></flowRoot><flowRoot fill="#000000" font-family="PixelOperator" font-size="40px" letter-spacing="0px" word-spacing="0px" style="line-height:1.25" xml:space="preserve"><flowRegion><rect x="364.665" y="138.883" width="382.848" height="104.046"/></flowRegion><flowPara font-size="96px">&lt;bytes&gt;</flowPara></flowRoot><g fill="#ff0000" aria-label="jt"><path d="m37.4766 245.12v-7.92969h-7.92969v-7.92969h-7.92969v-7.92968h-7.92969v-95.3386h63.5286v63.5286h15.8594v-103.177h63.6198v134.987h-8.02084v7.92968h-7.92968v7.92969h-7.92969v7.92969zm55.599-182.656v-55.599h63.6198v55.599z"/><path d="m228.427 245.12v-7.92969h-7.92969v-7.92969h-8.02084v-7.92968h-7.92968v-150.938h-15.8594v-47.6693h15.8594v-15.8594h63.5286v15.8594h79.4792v47.6693h-79.4792v111.198h15.9505v-95.2474h63.5286v134.987h-7.92968v7.92968h-7.92969v7.92969h-8.02084v7.92969z"/></g><g fill="#ffad00" aria-label="morris"><path d="m363.764 86.8493v-59.5638h15.8822v3.96484h1.98243v-1.98242h1.98242v-1.98242h9.93489v1.98242h1.98243v1.98242h3.98763v-1.98242h1.98242v-1.98242h11.9173v1.98242h1.98242v1.98242h1.98242v1.98242h1.98242v53.6165h-15.8822v-45.6641h-3.96484v45.6641h-15.905v-45.6641h-3.96485v45.6641z"/><path d="m447.23 72.9496v-31.7643h-3.96484v31.7643zm-13.8997 13.8997v-1.98242h-1.98242v-1.98242h-1.98242v-1.98242h-1.98243v-47.6693h1.98243v-1.98242h1.98242v-1.98242h1.98242v-1.98242h23.8346v1.98242h1.98242v1.98242h1.98242v1.98242h2.00521v47.6693h-2.00521v1.98242h-1.98242v1.98242h-1.98242v1.98242z"/><path d="m490.98 49.1377v-7.95247h-3.96484v7.95247zm-19.847 37.7116v-59.5638h29.7819v1.98242h1.98242v1.98242h1.98242v1.98242h2.00521v19.8698h-2.00521v1.98242h-1.98242v1.98242h1.98242v1.98242h2.00521v27.7995h-15.905v-23.8118h-3.96484v23.8118z"/><path d="m534.73 49.1377v-7.95247h-3.96484v7.95247zm-19.847 37.7116v-59.5638h29.7819v1.98242h1.98242v1.98242h1.98242v1.98242h2.00521v19.8698h-2.00521v1.98242h-1.98242v1.98242h1.98242v1.98242h2.00521v27.7995h-15.905v-23.8118h-3.96484v23.8118z"/><path d="m558.633 86.8493v-39.694h15.8822v39.694zm0-45.6641v-13.8997h15.8822v13.8997z"/><path d="m588.461 86.8493v-1.98242h-1.98242v-1.98242h-1.98243v-1.98242h-1.98242v-13.8997h15.8822v5.94726h3.96485v-9.91211h-13.8997v-1.98242h-1.98242v-2.00521h-1.98243v-1.98242h-1.98242v-23.8346h1.98242v-1.98242h1.98243v-1.98242h1.98242v-1.98242h23.8346v1.98242h1.98243v1.98242h1.98242v1.98242h2.00521v13.9225h-15.905v-5.97005h-3.96485v9.9349h13.8997v1.98242h1.98243v1.98242h1.98242v1.98242h2.00521v23.8346h-2.00521v1.98242h-1.98242v1.98242h-1.98243v1.98242z"/></g><g fill="#000000" aria-label="&lt;bytes&gt;"><path d="m361.219 154.37h8.16667v8.16666h-8.16667zm8.16667-8.16667h8.16667v8.16667h-8.16667zm8.16667-8.16667h8.16666v8.16667h-8.16666zm0 32.6667h8.16666v8.16667h-8.16666zm-8.16667-8.16667h8.16667v8.16667h-8.16667z"/><path d="m434.719 146.204h8.16666v40.8333h-8.16666zm-32.6667-24.5h8.16666v16.3333h24.5v8.16667h-24.5v40.8333h24.5v8.16667h-32.6667z"/><path d="m459.219 195.204h8.16667v8.16667h-8.16667zm8.16667 8.16667h24.5v8.16667h-24.5zm24.5-65.3333h8.16667v65.3333h-8.16667v-16.3333h-24.5v-8.16666h24.5zm-32.6667 0h8.16667v40.8333h-8.16667z"/><path d="m524.553 129.87h8.16667v8.16666h16.3333v8.16667h-16.3333v40.8333h-8.16667v-40.8333h-8.16667v-8.16667h8.16667zm8.16667 57.1667h16.3333v8.16667h-16.3333z"/><path d="m598.053 178.87h8.16667v8.16666h-8.16667zm-24.5 8.16666h24.5v8.16667h-24.5zm-8.16667-40.8333h8.16667v16.3333h24.5v-16.3333h8.16667v24.5h-32.6667v16.3333h-8.16667zm8.16667-8.16667h24.5v8.16667h-24.5z"/><path d="m622.553 146.204h8.16667v16.3333h-8.16667zm32.6667 24.5h8.16667v16.3333h-8.16667zm-24.5 16.3333h24.5v8.16667h-24.5zm-8.16667-8.16666h8.16667v8.16666h-8.16667zm8.16667-16.3333h24.5v8.16667h-24.5zm24.5-16.3333h8.16667v8.16667h-8.16667zm-24.5-8.16667h24.5v8.16667h-24.5z"/><path d="m679.719 170.704h8.16667v8.16667h-8.16667zm8.16667-8.16667h8.16667v8.16667h-8.16667zm8.16667-8.16666h8.16666v8.16666h-8.16666zm-8.16667-8.16667h8.16667v8.16667h-8.16667zm-8.16667-8.16667h8.16667v8.16667h-8.16667z"/></g><flowRoot fill="#000000" font-family="sans-serif" font-size="40px" letter-spacing="0px" word-spacing="0px" style="line-height:1.25" xml:space="preserve"><flowRegion><rect x="-20.7081" y="-42.9442" width="790.444" height="317.693"/></flowRegion><flowPara/></flowRoot></g></svg>
