<?xml version="1.0" encoding="UTF-8" standalone="no"?>
<!-- Created with Inkscape (http://www.inkscape.org/) -->

<svg
   xmlns:dc="http://purl.org/dc/elements/1.1/"
   xmlns:cc="http://creativecommons.org/ns#"
   xmlns:rdf="http://www.w3.org/1999/02/22-rdf-syntax-ns#"
   xmlns:svg="http://www.w3.org/2000/svg"
   xmlns="http://www.w3.org/2000/svg"
   xmlns:sodipodi="http://sodipodi.sourceforge.net/DTD/sodipodi-0.dtd"
   xmlns:inkscape="http://www.inkscape.org/namespaces/inkscape"
   width="694.53192"
   height="240.25522"
   viewBox="0 0 694.53192 240.25522"
   version="1.1"
   id="SVGRoot"
   inkscape:version="0.92.3 (2405546, 2018-03-11)"
   sodipodi:docname="logo_with_dotcom.svg">
  <sodipodi:namedview
     id="base"
     pagecolor="#a4ffff"
     bordercolor="#666666"
     borderopacity="1.0"
     inkscape:pageopacity="0.90196078"
     inkscape:pageshadow="2"
     inkscape:zoom="0.9899495"
     inkscape:cx="671.31611"
     inkscape:cy="177.23734"
     inkscape:document-units="px"
     inkscape:current-layer="layer2"
     showgrid="false"
     inkscape:window-width="2354"
     inkscape:window-height="1172"
     inkscape:window-x="339"
     inkscape:window-y="529"
     inkscape:window-maximized="0"
     fit-margin-top="2"
     fit-margin-left="2"
     fit-margin-bottom="-1.9428903e-16"
     fit-margin-right="2" />
  <defs
     id="defs3721" />
  <metadata
     id="metadata3724">
    <rdf:RDF>
      <cc:Work
         rdf:about="">
        <dc:format>image/svg+xml</dc:format>
        <dc:type
           rdf:resource="http://purl.org/dc/dcmitype/StillImage" />
        <dc:title></dc:title>
      </cc:Work>
    </rdf:RDF>
  </metadata>
  <g
     inkscape:groupmode="layer"
     id="layer2"
     inkscape:label="background"
     transform="translate(-11.687502,-4.8647345)" />
  <g
     id="layer1"
     inkscape:groupmode="layer"
     inkscape:label="logo Text"
     style="display:inline"
     transform="translate(-11.687502,-4.8647345)">
    <flowRoot
       xml:space="preserve"
       id="flowRoot3756"
       style="font-style:normal;font-weight:normal;font-size:40px;line-height:1.25;font-family:sans-serif;letter-spacing:0px;word-spacing:0px;fill:#000000;fill-opacity:1;stroke:none"><flowRegion
         id="flowRegion3758"><rect
           id="rect3760"
           width="218.19295"
           height="245.46707"
           x="0"
           y="3.522779" /></flowRegion><flowPara
         id="flowPara3762" /></flowRoot>    <flowRoot
       xml:space="preserve"
       id="flowRoot3780"
       style="font-style:normal;font-variant:normal;font-weight:normal;font-stretch:normal;font-size:40px;line-height:1.25;font-family:PixelOperator;-inkscape-font-specification:PixelOperator;letter-spacing:0px;word-spacing:0px;fill:#000000;fill-opacity:1;stroke:none"><flowRegion
         id="flowRegion3782"
         style="font-style:normal;font-variant:normal;font-weight:normal;font-stretch:normal;font-family:PixelOperator;-inkscape-font-specification:PixelOperator"><rect
           id="rect3784"
           width="382.84781"
           height="104.04572"
           x="364.66507"
           y="138.88322"
           style="font-style:normal;font-variant:normal;font-weight:normal;font-stretch:normal;font-family:PixelOperator;-inkscape-font-specification:PixelOperator" /></flowRegion><flowPara
         id="flowPara3786"
         style="font-style:normal;font-variant:normal;font-weight:normal;font-stretch:normal;font-size:96px;font-family:PixelOperator;-inkscape-font-specification:PixelOperator">&lt;bytes&gt;</flowPara></flowRoot>    <flowRoot
       xml:space="preserve"
       id="flowRoot4629"
       style="font-style:normal;font-weight:normal;font-size:40px;line-height:1.25;font-family:sans-serif;letter-spacing:0px;word-spacing:0px;fill:#000000;fill-opacity:1;stroke:none"><flowRegion
         id="flowRegion4631"><rect
           id="rect4633"
           width="790.4444"
           height="317.69296"
           x="-20.708128"
           y="-42.944241" /></flowRegion><flowPara
         id="flowPara4635" /></flowRoot>    <g
       id="g5503">
      <g
         aria-label="jt"
         style="font-style:normal;font-weight:normal;font-size:373.33334351px;line-height:1.25;font-family:sans-serif;letter-spacing:0px;word-spacing:0px;fill:#000000;fill-opacity:1;stroke:none"
         id="text4678">
        <path
           d="m 37.476565,245.11995 v -7.92969 h -7.929688 v -7.92969 h -7.929688 v -7.92968 h -7.929687 v -95.33855 h 63.528647 v 63.52865 H 93.075525 V 86.343903 H 156.69532 V 221.33089 h -8.02084 v 7.92968 h -7.92968 v 7.92969 h -7.92969 v 7.92969 z M 93.075525,62.463694 V 6.8647345 H 156.69532 V 62.463694 Z"
           style="font-style:normal;font-variant:normal;font-weight:normal;font-stretch:normal;font-size:373.33334351px;font-family:Pixeldown;-inkscape-font-specification:Pixeldown;fill:#ff0000;fill-opacity:1"
           id="path5543"
           inkscape:connector-curvature="0" />
        <path
           d="m 228.42709,245.11995 v -7.92969 h -7.92969 v -7.92969 h -8.02084 v -7.92968 h -7.92968 V 70.393382 H 188.6875 V 22.72411 h 15.85938 V 6.8647345 h 63.52864 V 22.72411 h 79.47917 V 70.393382 H 268.07552 V 181.5913 h 15.95053 V 86.343903 h 63.52864 V 221.33089 h -7.92968 v 7.92968 h -7.92969 v 7.92969 h -8.02084 v 7.92969 z"
           style="font-style:normal;font-variant:normal;font-weight:normal;font-stretch:normal;font-size:373.33334351px;font-family:Pixeldown;-inkscape-font-specification:Pixeldown;fill:#ff0000;fill-opacity:1"
           id="path5545"
           inkscape:connector-curvature="0" />
      </g>
      <g
         aria-label="morris"
         style="font-style:normal;font-weight:normal;font-size:86.66666412px;line-height:1.25;font-family:sans-serif;letter-spacing:0px;word-spacing:0px;fill:#000000;fill-opacity:1;stroke:none"
         id="text4672">
        <path
           d="M 363.76367,86.849319 V 27.285516 h 15.88216 v 3.964844 h 1.98243 v -1.982422 h 1.98242 v -1.982422 h 9.93489 v 1.982422 h 1.98243 v 1.982422 h 3.98763 v -1.982422 h 1.98242 v -1.982422 h 11.91732 v 1.982422 h 1.98242 v 1.982422 h 1.98242 v 1.982422 h 1.98242 V 86.849319 H 403.48047 V 41.185256 h -3.96484 V 86.849319 H 383.61068 V 41.185256 h -3.96485 v 45.664063 z"
           style="font-style:normal;font-variant:normal;font-weight:normal;font-stretch:normal;font-size:93.33333588px;font-family:Pixeldown;-inkscape-font-specification:Pixeldown;fill:#ffad00;fill-opacity:1"
           id="path5548"
           inkscape:connector-curvature="0" />
        <path
           d="M 447.23047,72.949579 V 41.185256 h -3.96484 v 31.764323 z m -13.89974,13.89974 v -1.982421 h -1.98242 v -1.982422 h -1.98242 v -1.982422 h -1.98243 V 33.232782 h 1.98243 V 31.25036 h 1.98242 v -1.982422 h 1.98242 v -1.982422 h 23.83464 v 1.982422 h 1.98242 v 1.982422 h 1.98242 v 1.982422 h 2.00521 v 47.669272 h -2.00521 v 1.982422 h -1.98242 v 1.982422 h -1.98242 v 1.982421 z"
           style="font-style:normal;font-variant:normal;font-weight:normal;font-stretch:normal;font-size:93.33333588px;font-family:Pixeldown;-inkscape-font-specification:Pixeldown;fill:#ffad00;fill-opacity:1"
           id="path5550"
           inkscape:connector-curvature="0" />
        <path
           d="m 490.98047,49.13773 v -7.952474 h -3.96484 v 7.952474 z m -19.847,37.711589 V 27.285516 h 29.7819 v 1.982422 h 1.98242 v 1.982422 h 1.98242 v 1.982422 h 2.00521 v 19.869792 h -2.00521 v 1.982422 h -1.98242 v 1.982422 h 1.98242 v 1.982422 h 2.00521 V 86.849319 H 490.98047 V 63.03747 h -3.96484 v 23.811849 z"
           style="font-style:normal;font-variant:normal;font-weight:normal;font-stretch:normal;font-size:93.33333588px;font-family:Pixeldown;-inkscape-font-specification:Pixeldown;fill:#ffad00;fill-opacity:1"
           id="path5552"
           inkscape:connector-curvature="0" />
        <path
           d="m 534.73047,49.13773 v -7.952474 h -3.96484 v 7.952474 z m -19.847,37.711589 V 27.285516 h 29.7819 v 1.982422 h 1.98242 v 1.982422 h 1.98242 v 1.982422 h 2.00521 v 19.869792 h -2.00521 v 1.982422 h -1.98242 v 1.982422 h 1.98242 v 1.982422 h 2.00521 V 86.849319 H 534.73047 V 63.03747 h -3.96484 v 23.811849 z"
           style="font-style:normal;font-variant:normal;font-weight:normal;font-stretch:normal;font-size:93.33333588px;font-family:Pixeldown;-inkscape-font-specification:Pixeldown;fill:#ffad00;fill-opacity:1"
           id="path5554"
           inkscape:connector-curvature="0" />
        <path
           d="M 558.63347,86.849319 V 47.155308 h 15.88216 v 39.694011 z m 0,-45.664063 v -13.89974 h 15.88216 v 13.89974 z"
           style="font-style:normal;font-variant:normal;font-weight:normal;font-stretch:normal;font-size:93.33333588px;font-family:Pixeldown;-inkscape-font-specification:Pixeldown;fill:#ffad00;fill-opacity:1"
           id="path5556"
           inkscape:connector-curvature="0" />
        <path
           d="m 588.46094,86.849319 v -1.982421 h -1.98242 v -1.982422 h -1.98243 v -1.982422 h -1.98242 v -13.89974 h 15.88216 v 5.947265 h 3.96485 V 63.03747 h -13.89974 v -1.982422 h -1.98242 V 59.04984 h -1.98243 v -1.982422 h -1.98242 V 33.232782 h 1.98242 V 31.25036 h 1.98243 v -1.982422 h 1.98242 v -1.982422 h 23.83463 v 1.982422 h 1.98243 v 1.982422 h 1.98242 v 1.982422 h 2.00521 v 13.922526 h -15.90495 v -5.970052 h -3.96485 v 9.934896 h 13.89974 v 1.982422 h 1.98243 v 1.982422 h 1.98242 v 1.982422 h 2.00521 v 23.834636 h -2.00521 v 1.982422 H 614.278 v 1.982422 h -1.98243 v 1.982421 z"
           style="font-style:normal;font-variant:normal;font-weight:normal;font-stretch:normal;font-size:93.33333588px;font-family:Pixeldown;-inkscape-font-specification:Pixeldown;fill:#ffad00;fill-opacity:1"
           id="path5558"
           inkscape:connector-curvature="0" />
      </g>
      <g
         aria-label="&lt;bytes&gt;"
         style="font-style:normal;font-weight:normal;font-size:130.66667175px;line-height:1;font-family:sans-serif;letter-spacing:0px;word-spacing:0px;fill:#000000;fill-opacity:1;stroke:none"
         id="text4660">
        <path
           d="m 361.2194,123.05572 h 8.16667 v 8.16667 h -8.16667 z m 8.16667,-8.16667 h 8.16667 v 8.16667 h -8.16667 z m 8.16667,-8.16667 h 8.16666 v 8.16667 h -8.16666 z m 0,32.66667 h 8.16666 v 8.16667 h -8.16666 z m -8.16667,-8.16666 h 8.16667 v 8.16666 h -8.16667 z"
           style="font-style:normal;font-variant:normal;font-weight:normal;font-stretch:normal;font-size:130.66667175px;line-height:1;font-family:'Pixel Operator';-inkscape-font-specification:'Pixel Operator'"
           id="path5561"
           inkscape:connector-curvature="0" />
        <path
           d="m 434.71941,114.88905 h 8.16666 v 40.83334 h -8.16666 z m -32.66667,-24.5 h 8.16666 v 16.33333 h 24.50001 v 8.16667 H 410.2194 v 40.83334 h 24.50001 v 8.16666 h -32.66667 z"
           style="font-style:normal;font-variant:normal;font-weight:normal;font-stretch:normal;font-size:130.66667175px;line-height:1;font-family:'Pixel Operator';-inkscape-font-specification:'Pixel Operator'"
           id="path5563"
           inkscape:connector-curvature="0" />
        <path
           d="m 459.2194,163.88905 h 8.16667 v 8.16667 h -8.16667 z m 8.16667,8.16667 h 24.5 v 8.16667 h -24.5 z m 24.5,-65.33334 h 8.16667 v 65.33334 h -8.16667 v -16.33333 h -24.5 v -8.16667 h 24.5 z m -32.66667,0 h 8.16667 v 40.83334 h -8.16667 z"
           style="font-style:normal;font-variant:normal;font-weight:normal;font-stretch:normal;font-size:130.66667175px;line-height:1;font-family:'Pixel Operator';-inkscape-font-specification:'Pixel Operator'"
           id="path5565"
           inkscape:connector-curvature="0" />
        <path
           d="m 524.55274,98.555717 h 8.16667 v 8.166663 h 16.33333 v 8.16667 h -16.33333 v 40.83334 h -8.16667 v -40.83334 h -8.16667 v -8.16667 h 8.16667 z m 8.16667,57.166673 h 16.33333 v 8.16666 h -16.33333 z"
           style="font-style:normal;font-variant:normal;font-weight:normal;font-stretch:normal;font-size:130.66667175px;line-height:1;font-family:'Pixel Operator';-inkscape-font-specification:'Pixel Operator'"
           id="path5567"
           inkscape:connector-curvature="0" />
        <path
           d="m 598.05274,147.55572 h 8.16667 v 8.16667 h -8.16667 z m -24.5,8.16667 h 24.5 v 8.16666 h -24.5 z m -8.16667,-40.83334 h 8.16667 v 16.33334 h 24.5 v -16.33334 h 8.16667 v 24.5 h -32.66667 v 16.33334 h -8.16667 z m 8.16667,-8.16667 h 24.5 v 8.16667 h -24.5 z"
           style="font-style:normal;font-variant:normal;font-weight:normal;font-stretch:normal;font-size:130.66667175px;line-height:1;font-family:'Pixel Operator';-inkscape-font-specification:'Pixel Operator'"
           id="path5569"
           inkscape:connector-curvature="0" />
        <path
           d="m 622.55274,114.88905 h 8.16667 v 16.33334 h -8.16667 z m 32.66667,24.5 h 8.16667 v 16.33334 h -8.16667 z m -24.5,16.33334 h 24.5 v 8.16666 h -24.5 z m -8.16667,-8.16667 h 8.16667 v 8.16667 h -8.16667 z m 8.16667,-16.33333 h 24.5 v 8.16666 h -24.5 z m 24.5,-16.33334 h 8.16667 v 8.16667 h -8.16667 z m -24.5,-8.16667 h 24.5 v 8.16667 h -24.5 z"
           style="font-style:normal;font-variant:normal;font-weight:normal;font-stretch:normal;font-size:130.66667175px;line-height:1;font-family:'Pixel Operator';-inkscape-font-specification:'Pixel Operator'"
           id="path5571"
           inkscape:connector-curvature="0" />
        <path
           d="m 679.7194,139.38905 h 8.16667 v 8.16667 h -8.16667 z m 8.16667,-8.16666 h 8.16667 v 8.16666 h -8.16667 z m 8.16667,-8.16667 h 8.16666 v 8.16667 h -8.16666 z m -8.16667,-8.16667 h 8.16667 v 8.16667 h -8.16667 z m -8.16667,-8.16667 h 8.16667 v 8.16667 h -8.16667 z"
           style="font-style:normal;font-variant:normal;font-weight:normal;font-stretch:normal;font-size:130.66667175px;line-height:1;font-family:'Pixel Operator';-inkscape-font-specification:'Pixel Operator'"
           id="path5573"
           inkscape:connector-curvature="0" />
      </g>
      <g
         aria-label=".com"
         style="font-style:normal;font-variant:normal;font-weight:normal;font-stretch:normal;font-size:88px;line-height:1.25;font-family:Courier;-inkscape-font-specification:Courier;letter-spacing:0px;word-spacing:0px;fill:#000000;fill-opacity:1;stroke:none"
         id="flowRoot5477">
        <path
           d="m 509.23456,215.20863 h 10.82812 v 13.10547 h -10.82812 z"
           style="font-style:normal;font-variant:normal;font-weight:normal;font-stretch:normal;font-size:88px;font-family:monospace;-inkscape-font-specification:monospace"
           id="path5576"
           inkscape:connector-curvature="0" />
        <path
           d="m 586.75018,225.86488 q -3.17968,1.84766 -6.57422,2.75 -3.35156,0.94531 -6.875,0.94531 -11.17187,0 -17.48828,-6.70312 -6.27343,-6.70313 -6.27343,-18.5625 0,-11.85938 6.27343,-18.5625 6.31641,-6.70313 17.48828,-6.70313 3.48047,0 6.78907,0.90235 3.30859,0.90234 6.66015,2.79296 v 8.29297 q -3.13672,-2.79297 -6.3164,-4.03906 -3.13672,-1.24609 -7.13282,-1.24609 -7.43359,0 -11.42968,4.8125 -3.9961,4.8125 -3.9961,13.75 0,8.89453 3.9961,13.75 4.03906,4.8125 11.42968,4.8125 4.125,0 7.39063,-1.2461 3.26562,-1.28906 6.05859,-3.95312 z"
           style="font-style:normal;font-variant:normal;font-weight:normal;font-stretch:normal;font-size:88px;font-family:monospace;-inkscape-font-specification:monospace"
           id="path5578"
           inkscape:connector-curvature="0" />
        <path
           d="m 620.56659,185.73207 q -6.01563,0 -9.10938,4.68359 -3.09375,4.68359 -3.09375,13.87891 0,9.15234 3.09375,13.8789 3.09375,4.6836 9.10938,4.6836 6.05859,0 9.15234,-4.6836 3.09375,-4.72656 3.09375,-13.8789 0,-9.19532 -3.09375,-13.87891 -3.09375,-4.68359 -9.15234,-4.68359 z m 0,-6.70313 q 10.01172,0 15.29687,6.48828 5.32813,6.48828 5.32813,18.77735 0,12.33203 -5.28516,18.82031 -5.28515,6.44531 -15.33984,6.44531 -10.01172,0 -15.29688,-6.44531 -5.28515,-6.48828 -5.28515,-18.82031 0,-12.28907 5.28515,-18.77735 5.28516,-6.48828 15.29688,-6.48828 z"
           style="font-style:normal;font-variant:normal;font-weight:normal;font-stretch:normal;font-size:88px;font-family:monospace;-inkscape-font-specification:monospace"
           id="path5580"
           inkscape:connector-curvature="0" />
        <path
           d="m 669.85175,228.3141 v -29.47656 q 0,-6.61719 -1.07422,-9.23829 -1.03125,-2.66406 -3.82422,-2.66406 -2.75,0 -4.46875,4.125 -1.67578,4.125 -1.67578,11.17188 v 26.08203 h -7.26172 v -36.56641 q 0,-8.12109 -0.25781,-9.92578 h 6.40234 l 0.25781,5.45703 v 2.0625 h 0.0859 q 1.46094,-4.38281 3.69531,-6.35937 2.23438,-2.01953 5.58594,-2.01953 3.78125,0 5.62891,2.0625 1.89062,2.0625 2.70703,6.35937 h 0.0859 q 1.71875,-4.55469 4.08204,-6.48828 2.40625,-1.93359 6.05859,-1.93359 5.07031,0 7.26172,3.69531 2.1914,3.69531 2.1914,12.67578 v 30.98047 h -7.21875 v -29.47656 q 0,-6.61719 -1.07421,-9.23829 -1.03125,-2.66406 -3.82422,-2.66406 -2.83594,0 -4.51172,3.60938 -1.63281,3.60937 -1.63281,10.82812 v 26.94141 z"
           style="font-size:88px"
           id="path5582"
           inkscape:connector-curvature="0" />
      </g>
    </g>
  </g>
</svg>
