<?xml version="1.0" encoding="UTF-8" standalone="no"?>
<svg
   xmlns:dc="http://purl.org/dc/elements/1.1/"
   xmlns:cc="http://creativecommons.org/ns#"
   xmlns:rdf="http://www.w3.org/1999/02/22-rdf-syntax-ns#"
   xmlns:svg="http://www.w3.org/2000/svg"
   xmlns="http://www.w3.org/2000/svg"
   xmlns:xlink="http://www.w3.org/1999/xlink"
   xmlns:sodipodi="http://sodipodi.sourceforge.net/DTD/sodipodi-0.dtd"
   xmlns:inkscape="http://www.inkscape.org/namespaces/inkscape"
   id="SVGRoot"
   version="1.1"
   viewBox="0 0 464.11 485.62"
   sodipodi:docname="welcome.svg"
   inkscape:version="0.92.3 (2405546, 2018-03-11)">
  <metadata
     id="metadata2379">
    <rdf:RDF>
      <cc:Work
         rdf:about="">
        <dc:format>image/svg+xml</dc:format>
        <dc:type
           rdf:resource="http://purl.org/dc/dcmitype/StillImage" />
        <dc:title></dc:title>
      </cc:Work>
    </rdf:RDF>
  </metadata>
  <sodipodi:namedview
     pagecolor="#ffffff"
     bordercolor="#666666"
     borderopacity="1"
     objecttolerance="10"
     gridtolerance="10"
     guidetolerance="10"
     inkscape:pageopacity="0"
     inkscape:pageshadow="2"
     inkscape:window-width="3773"
     inkscape:window-height="2082"
     id="namedview2377"
     showgrid="false"
     inkscape:zoom="21.771469"
     inkscape:cx="331.86743"
     inkscape:cy="169.18042"
     inkscape:window-x="67"
     inkscape:window-y="41"
     inkscape:window-maximized="1"
     inkscape:current-layer="SVGRoot" />
  <defs
     id="defs1652">
    <linearGradient
       id="linearGradient11053">
      <stop
         stop-color="#00ff00"
         offset="0"
         id="stop1640" />
      <stop
         stop-color="#008500"
         offset="1"
         id="stop1642" />
    </linearGradient>
    <linearGradient
       id="linearGradient8633"
       x1="310.6"
       x2="474.11"
       y1="294.47"
       y2="294.47"
       gradientTransform="matrix(1.9751 0 0 1.0061 -461.94 -2.4077)"
       gradientUnits="userSpaceOnUse">
      <stop
         stop-color="#70ffff"
         offset="0"
         id="stop1645" />
      <stop
         stop-color="#00ffff"
         stop-opacity=".99836"
         offset="1"
         id="stop1647" />
    </linearGradient>
    <linearGradient
       id="linearGradient11055"
       x1="189.07"
       x2="195.68"
       y1="586.34"
       y2="515.14"
       gradientTransform="matrix(.50017 0 0 1.0063 5.0946 -3.4022)"
       gradientUnits="userSpaceOnUse"
       xlink:href="#linearGradient11053" />
    <linearGradient
       id="linearGradient11059"
       x1="184.95"
       x2="193.56"
       y1="587.39"
       y2="508.11"
       gradientTransform="matrix(-.4961 0 0 1.0032 479.85 -1.5894)"
       gradientUnits="userSpaceOnUse"
       xlink:href="#linearGradient11053" />
  </defs>
  <g
     transform="translate(-10.496 -104.2)"
     id="g1660">
    <g
       id="g1658">
      <path
         d="m10.496 492.6h232.96v97.202h-232.96z"
         fill="url(#linearGradient11055)"
         style="paint-order:stroke fill markers"
         id="path1654" />
      <path
         d="m474.49 492.91h-231.06v96.906h231.06z"
         fill="url(#linearGradient11059)"
         style="paint-order:stroke fill markers"
         id="path1656" />
    </g>
  </g>
  <g
     transform="translate(-10.496 -104.2)"
     stroke="#000000"
     stroke-miterlimit="3.8"
     id="g1672">
    <g
       fill="#aca793"
       id="g1668">
      <path
         d="m10.8 487.9v-5.0047h32.061c17.634 0 32.061 0.12081 32.061 0.26848 0 0.14766-1.2142 2.3998-2.6982 5.0046l-2.6982 4.7362h-58.726z"
         stroke-width=".24684"
         id="path1662" />
      <path
         d="m407.61 488.57c-1.5844-2.3797-2.9425-4.4857-3.018-4.68-0.0811-0.20885 14.177-0.35326 34.878-0.35326h35.016v9.375l-63.995-0.014-2.8808-4.3268z"
         stroke-width=".24057"
         id="path1664" />
      <path
         d="m45.906 545.5v-8.1242l48.067-0.27938c26.437-0.15364 113.92-0.27945 194.4-0.27956l146.34-1.8e-4 4e-3 5.5675c0 3.0621 0.11419 6.8438 0.25037 8.4037l0.24649 2.8363h-389.31z"
         stroke-width=".24239"
         id="path1666" />
    </g>
    <path
       d="m45.938 537.06c0-0.31807 24.797-46.6 27.372-51.088l1.5241-2.6562h329.51l2.6896 4.6238c9.0435 15.547 27.798 48.596 27.657 48.738-0.30326 0.30598-388.75 0.68778-388.75 0.3821zm324.82-9.8005c-0.0694-0.28831-4.8589-8.7883-10.643-18.889l-10.517-18.365h-218.16l-20.291 37.778h129.87c107.97 0 129.85-0.0884 129.74-0.52422z"
       fill="#c8c4b7"
       stroke-width=".23506"
       id="path1670" />
  </g>
  <g
     transform="translate(-10.496 -104.2)"
     id="g1680">
    <path
       d="m186.38 526.9c1.6709-0.029 4.4551-0.0291 6.1872-1.1e-4 1.7321 0.029 0.36496 0.0527-3.038 0.0528-3.403 6e-5 -4.8201-0.0236-3.1492-0.0527z"
       fill="#a4ffff"
       stroke="#008282"
       stroke-miterlimit="3.8"
       stroke-width=".041366"
       id="path1674" />
    <path
       d="m131.94 490.61-19.913 36.724 258.73-0.25253-21.085-36.52z"
       fill="#00828f"
       fill-opacity=".94118"
       stroke="#000000"
       stroke-width=".6594px"
       id="path1676" />
    <path
       d="m360.3 526.68c0-0.0292 0.32343-0.22959 0.71875-0.44527 2.3948-1.3066 4.8013-1.8882 6.9716-1.6848l0.93325 0.0874 0.53193 0.95141c0.29257 0.52328 0.55069 0.99482 0.5736 1.0479 0.0229 0.0531-2.1568 0.0965-4.8438 0.0965s-4.8854-0.0239-4.8854-0.0531z"
       fill="#00828f"
       fill-opacity=".94118"
       stroke="#008282"
       stroke-miterlimit="3.8"
       stroke-width=".02925"
       id="path1678" />
  </g>
  <g
     transform="translate(-10.496 -104.2)"
     id="g1720">
    <g
       fill="#ff0000"
       stroke="#a70000"
       stroke-width="1.1"
       style="paint-order:stroke fill markers"
       id="g1718">
      <g
         transform="matrix(1 0 -.30573 1 154.5 0)"
         style="paint-order:stroke fill markers"
         id="g1696">
        <path
           d="m139.32 498.53h1.7956l1.3034 11.047 1.5495-7.3099h1.9232l1.5677 7.3281 1.3034-11.065h1.7956l-2.0326 13.608h-1.7409l-1.8503-8.0846-1.8412 8.0846h-1.7409z"
           style="paint-order:stroke fill markers"
           id="path1682" />
        <path
           d="m152.35 498.53h8.0755v1.5495h-6.2344v4.0286h5.9609v1.5495h-5.9609v4.931h6.4076v1.5495h-8.2487z"
           style="paint-order:stroke fill markers"
           id="path1684" />
        <path
           d="m163.74 498.53h1.8503v12.059h6.5716v1.5495h-8.4219z"
           style="paint-order:stroke fill markers"
           id="path1686" />
        <path
           d="m182.79 511.65q-0.70182 0.3737-1.4401 0.55599-0.73828 0.19141-1.5677 0.19141-2.6159 0-4.0651-1.8503-1.4401-1.8503-1.4401-5.2044 0-3.3359 1.4492-5.1953 1.4583-1.8685 4.056-1.8685 0.82943 0 1.5677 0.1914 0.73828 0.1823 1.4401 0.55599v1.8867q-0.67448-0.55599-1.4492-0.84765-0.77473-0.29167-1.5586-0.29167-1.7956 0-2.6888 1.3854-0.89323 1.3854-0.89323 4.1836 0 2.7891 0.89323 4.1745t2.6888 1.3854q0.80208 0 1.5677-0.29167 0.77474-0.29167 1.4401-0.84766z"
           style="paint-order:stroke fill markers"
           id="path1688" />
        <path
           d="m192.49 505.34q0-2.9987-0.61979-4.2838-0.61068-1.2852-2.0143-1.2852-1.3945 0-2.0143 1.2852-0.61068 1.2852-0.61068 4.2838 0 2.9896 0.61068 4.2747 0.61979 1.2852 2.0143 1.2852 1.4036 0 2.0143-1.276 0.61979-1.2852 0.61979-4.2838zm1.9232 0q0 3.5547-1.1302 5.3047-1.1211 1.75-3.4271 1.75t-3.4271-1.7409q-1.1211-1.7409-1.1211-5.3138 0-3.5638 1.1211-5.3138 1.1302-1.75 3.4271-1.75 2.306 0 3.4271 1.75 1.1302 1.75 1.1302 5.3138z"
           style="paint-order:stroke fill markers"
           id="path1690" />
        <path
           d="m196.25 498.53h2.4609l2.3516 6.9271 2.3698-6.9271h2.47v13.608h-1.7044v-12.022l-2.4245 7.1732h-1.3945l-2.4336-7.1732v12.022h-1.6953z"
           style="paint-order:stroke fill markers"
           id="path1692" />
        <path
           d="m208.49 498.53h8.0755v1.5495h-6.2344v4.0286h5.9609v1.5495h-5.9609v4.931h6.4076v1.5495h-8.2487z"
           style="paint-order:stroke fill markers"
           id="path1694" />
      </g>
      <path
         d="m230.29 498.53h10.382l-0.16212 1.5495h-4.2565l-1.2629 12.059h-1.8503l1.2629-12.059h-4.2747z"
         style="paint-order:stroke fill markers"
         id="path1698" />
      <path
         d="m248.63 505.34q-0.26166-2.9987-0.9937-4.2838-0.72282-1.2852-2.1265-1.2852-1.3945 0-1.9022 1.2852-0.49848 1.2852-0.23678 4.2838 0.26092 2.9896 0.98378 4.2747 0.73194 1.2852 2.1265 1.2852 1.4036 0 1.9029-1.276 0.50765-1.2852 0.24595-4.2838zm1.9232 0q0.3102 3.5547-0.66726 5.3047-0.96834 1.75-3.2743 1.75t-3.579-1.7409q-1.273-1.7409-1.5848-5.3138-0.31104-3.5638 0.65735-5.3138 0.97746-1.75 3.2743-1.75 2.306 0 3.5798 1.75 1.2829 1.75 1.594 5.3138z"
         style="paint-order:stroke fill markers"
         id="path1700" />
      <g
         transform="matrix(1 0 .17633 1 -89.103 0)"
         style="paint-order:stroke fill markers"
         id="g1708">
        <path
           d="m263.27 498.53h10.382v1.5495h-4.2565v12.059h-1.8503v-12.059h-4.2747z"
           style="paint-order:stroke fill markers"
           id="path1702" />
        <path
           d="m275.32 498.53h1.8503v5.5781h5.0404v-5.5781h1.8503v13.608h-1.8503v-6.4805h-5.0404v6.4805h-1.8503z"
           style="paint-order:stroke fill markers"
           id="path1704" />
        <path
           d="m287.1 498.53h8.0755v1.5495h-6.2344v4.0286h5.9609v1.5495h-5.9609v4.931h6.4076v1.5495h-8.2487z"
           style="paint-order:stroke fill markers"
           id="path1706" />
      </g>
      <g
         transform="matrix(1 0 .28675 1 -144.9 0)"
         style="paint-order:stroke fill markers"
         id="g1716">
        <path
           d="m309.72 498.53h1.8503v12.059h6.5716v1.5495h-8.4219z"
           style="paint-order:stroke fill markers"
           id="path1710" />
        <path
           d="m324.6 500.15-1.9414 6.9635h3.8828zm-1.112-1.6224h2.2331l4.1654 13.608h-1.9049l-1.0026-3.5456h-4.7669l-0.98437 3.5456h-1.905z"
           style="paint-order:stroke fill markers"
           id="path1712" />
        <path
           d="m333.58 505.64v4.9857h2.1784q1.6042 0 2.2878-0.55599 0.68359-0.5651 0.68359-1.8503 0-1.3307-0.72005-1.9505-0.72005-0.6289-2.2513-0.6289zm0-5.5964v4.1016h2.1419q1.3307 0 1.9232-0.51042 0.60156-0.51042 0.60156-1.6497 0-1.03-0.59245-1.4857-0.58333-0.45573-1.9323-0.45573zm-1.8503-1.513h4.0286q2.0872 0 3.2174 0.90235 1.1302 0.90234 1.1302 2.5521 0 1.2487-0.60157 1.9688-0.59244 0.72005-1.7864 0.90234 1.3398 0.20052 2.0964 1.1484 0.76563 0.9388 0.76563 2.3971 0 1.8503-1.2122 2.7982-1.2122 0.9388-3.6094 0.9388h-4.0286z"
           style="paint-order:stroke fill markers"
           id="path1714" />
      </g>
    </g>
  </g>
  <g
     transform="translate(-10.496 -104.2)"
     id="g1738">
    <rect
       x="233.41"
       y="146.87"
       width="12.891"
       height="335.16"
       fill="#ffffff"
       stroke="#000000"
       stroke-miterlimit="3.8"
       stroke-width=".6"
       id="rect1722" />
    <g
       fill-opacity="0"
       id="g1734">
      <path
         d="m-448.17 151v-187.5h228.91v375h-32.812v-338.67l-166.8 0.013753-0.19709 169.33-0.19708 169.33h-28.903z"
         id="path1724" />
      <path
         d="m-448.17 151v-187.5h228.91v375h-32.812v-338.67l-166.8 0.013753-0.19709 169.33-0.19708 169.33h-28.903z"
         id="path1726" />
      <path
         d="m-448.17 151v-187.5h228.91v375h-32.812v-338.67l-166.8 0.013753-0.19709 169.33-0.19708 169.33h-28.903z"
         id="path1728" />
      <path
         d="m-448.17 151v-187.5h228.91v375h-32.812v-338.67l-166.8 0.013753-0.19709 169.33-0.19708 169.33h-28.903z"
         id="path1730" />
      <path
         d="m492.94 266.62v-187.5h228.12v375h-32.028l-0.19708-169.34-0.19709-169.34-167.58-0.39766v339.07h-28.125z"
         id="path1732" />
    </g>
    <rect
       x="10.8"
       y="104.2"
       width="463.69"
       height="379.33"
       ry="0"
       fill="url(#linearGradient8633)"
       id="rect1736" />
  </g>
  <g
     transform="translate(-10.496 -104.2)"
     id="g2374">
    <g
       transform="translate(4)"
       id="g1946"
       stroke="#000000">
      <rect
         transform="scale(1,-1)"
         x="240.3"
         y="-482.03"
         width="158.59"
         height="335.16"
         id="rect1740"
         stroke-width="3"
         fill="#916f6f" />
      <rect
         transform="scale(1,-1)"
         x="248.93"
         y="-473.76"
         width="140.89"
         height="317.56"
         id="rect1742"
         stroke-width="2.0793"
         fill="#c8beb7" />
      <g
         transform="matrix(1 0 0 -1 165.48 628.91)"
         stroke-miterlimit="3.8"
         id="g1944"
         stroke-width=".68809"
         fill="#c8beb7">
        <path
           transform="rotate(266.6 154.01 99.677)"
           d="m99.253 173.92-3.6381-0.11527-1.9014-2.9724 1.9775-3.2574 3.5022 0.11799 1.712 3.0903z"
           id="path1744" />
        <path
           transform="translate(2.9451 -20.143)"
           d="m98.699 172.55-1.9904 0.41729-1.6987-1.8641 0.84753-1.9848 2.2138-0.56323 1.4954 1.8094z"
           id="path1746" />
        <path
           transform="translate(-8.1718 -20.031)"
           d="m98.524 172.73-2.2174 0.0614-1.1905-1.8422 1.1023-2.0074 2.1404-0.13775 1.2264 1.8565z"
           id="path1748" />
        <path
           transform="translate(12.752 -20.143)"
           d="m98.826 172.88-2.6232 0.17413-1.2976-2.0451 1.1575-2.3462 2.3467-0.2172 1.4657 2.1721z"
           id="path1750" />
        <path
           transform="translate(22.094 -20.143)"
           d="m98.385 172.65-2.0095 0.039-1.0812-1.9113 1.1714-1.9158 1.9969 0.0606 1.0236 1.9605z"
           id="path1752" />
        <path
           transform="translate(31.542 -20.143)"
           d="m98.722 172.71-2.251-0.041-1.1704-1.6967 0.82174-2.049 2.2509-0.24359 1.2363 2.0075z"
           id="path1754" />
        <path
           transform="translate(41.006 -20.143)"
           d="m98.563 172.96-2.5626 0.0543-1.0678-2.4453 1.3595-2.0557 2.5858 0.12762 1.0681 2.1941z"
           id="path1756" />
        <path
           transform="translate(50.225 -20.031)"
           d="m97.773 173.36-2.4347-0.91212-0.41475-2.5542 2.105-1.5748 2.3201 0.7697 0.4146 2.5579z"
           id="path1758" />
        <path
           transform="translate(60.358 -20.143)"
           d="m98.563 172.96-2.5626 0.0543-1.0678-2.4453 1.3595-2.0557 2.5858 0.12762 1.0681 2.1941z"
           id="path1760" />
        <path
           transform="translate(69.95 -20.031)"
           d="m98.524 172.73-2.2174 0.0614-1.1905-1.8422 1.1023-2.0074 2.1404-0.13775 1.2264 1.8565z"
           id="path1762" />
        <path
           transform="translate(79.18 -19.479)"
           d="m98.563 172.96-2.5626 0.0543-1.0678-2.4453 1.3595-2.0557 2.5858 0.12762 1.0681 2.1941z"
           id="path1764" />
        <path
           transform="translate(100.7 -19.557)"
           d="m98.699 172.55-1.9904 0.41729-1.6987-1.8641 0.84753-1.9848 2.2138-0.56323 1.4954 1.8094z"
           id="path1766" />
        <path
           transform="translate(89.578 -19.445)"
           d="m98.524 172.73-2.2174 0.0614-1.1905-1.8422 1.1023-2.0074 2.1404-0.13775 1.2264 1.8565z"
           id="path1768" />
        <path
           transform="translate(110.5 -19.557)"
           d="m98.826 172.88-2.6232 0.17413-1.2976-2.0451 1.1575-2.3462 2.3467-0.2172 1.4657 2.1721z"
           id="path1770" />
        <path
           transform="translate(119.84 -19.557)"
           d="m98.385 172.65-2.0095 0.039-1.0812-1.9113 1.1714-1.9158 1.9969 0.0606 1.0236 1.9605z"
           id="path1772" />
        <path
           transform="translate(.94512 306.37)"
           d="m98.699 172.55-1.9904 0.41729-1.6987-1.8641 0.84753-1.9848 2.2138-0.56323 1.4954 1.8094z"
           id="path1774" />
        <path
           transform="translate(-10.172 306.49)"
           d="m98.524 172.73-2.2174 0.0614-1.1905-1.8422 1.1023-2.0074 2.1404-0.13775 1.2264 1.8565z"
           id="path1776" />
        <path
           transform="translate(10.752 306.37)"
           d="m98.826 172.88-2.6232 0.17413-1.2976-2.0451 1.1575-2.3462 2.3467-0.2172 1.4657 2.1721z"
           id="path1778" />
        <path
           transform="translate(20.094 306.37)"
           d="m98.385 172.65-2.0095 0.039-1.0812-1.9113 1.1714-1.9158 1.9969 0.0606 1.0236 1.9605z"
           id="path1780" />
        <path
           transform="translate(27.542 306.37)"
           d="m98.722 172.71-2.251-0.041-1.1704-1.6967 0.82174-2.049 2.2509-0.24359 1.2363 2.0075z"
           id="path1782" />
        <path
           transform="translate(37.006 306.37)"
           d="m98.563 172.96-2.5626 0.0543-1.0678-2.4453 1.3595-2.0557 2.5858 0.12762 1.0681 2.1941z"
           id="path1784" />
        <path
           transform="translate(46.225 306.49)"
           d="m97.773 173.36-2.4347-0.91212-0.41475-2.5542 2.105-1.5748 2.3201 0.7697 0.4146 2.5579z"
           id="path1786" />
        <path
           transform="translate(56.358 306.37)"
           d="m98.563 172.96-2.5626 0.0543-1.0678-2.4453 1.3595-2.0557 2.5858 0.12762 1.0681 2.1941z"
           id="path1788" />
        <path
           transform="translate(65.95 305.9)"
           d="m98.524 172.73-2.2174 0.0614-1.1905-1.8422 1.1023-2.0074 2.1404-0.13775 1.2264 1.8565z"
           id="path1790" />
        <path
           transform="translate(75.18 307.04)"
           d="m98.563 172.96-2.5626 0.0543-1.0678-2.4453 1.3595-2.0557 2.5858 0.12762 1.0681 2.1941z"
           id="path1792" />
        <path
           transform="translate(96.695 306.96)"
           d="m98.699 172.55-1.9904 0.41729-1.6987-1.8641 0.84753-1.9848 2.2138-0.56323 1.4954 1.8094z"
           id="path1794" />
        <path
           transform="translate(85.578 307.07)"
           d="m98.524 172.73-2.2174 0.0614-1.1905-1.8422 1.1023-2.0074 2.1404-0.13775 1.2264 1.8565z"
           id="path1796" />
        <path
           transform="translate(106.5 306.96)"
           d="m98.826 172.88-2.6232 0.17413-1.2976-2.0451 1.1575-2.3462 2.3467-0.2172 1.4657 2.1721z"
           id="path1798" />
        <path
           transform="translate(115.84 306.96)"
           d="m98.385 172.65-2.0095 0.039-1.0812-1.9113 1.1714-1.9158 1.9969 0.0606 1.0236 1.9605z"
           id="path1800" />
        <path
           transform="rotate(90 6.036 386.34)"
           d="m98.732 172.22-1.9915 0.79005-1.3784-1.6286 0.46346-2.2242 2.0467-0.42412 1.6958 1.5941z"
           id="path1802" />
        <path
           transform="rotate(90 169.26 230.58)"
           d="m98.385 172.65-2.0095 0.039-1.0812-1.9113 1.1714-1.9158 1.9969 0.0606 1.0236 1.9605z"
           id="path1804" />
        <path
           transform="rotate(90 96.344 303.59)"
           d="m98.732 172.22-1.9915 0.79005-1.3784-1.6286 0.46346-2.2242 2.0467-0.42412 1.6958 1.5941z"
           id="path1806" />
        <path
           transform="rotate(90 100.85 298.97)"
           d="m98.524 172.73-2.2174 0.0614-1.1905-1.8422 1.1023-2.0074 2.1404-0.13775 1.2264 1.8565z"
           id="path1808" />
        <path
           transform="rotate(90 159.46 240.43)"
           d="m97.773 173.36-2.4347-0.91212-0.41475-2.5542 2.105-1.5748 2.3201 0.7697 0.4146 2.5579z"
           id="path1810" />
        <path
           transform="rotate(90 154.48 244.9)"
           d="m98.563 172.96-2.5626 0.0543-1.0678-2.4453 1.3595-2.0557 2.5858 0.12762 1.0681 2.1941z"
           id="path1812" />
        <path
           transform="rotate(90 150.31 249.41)"
           d="m98.722 172.71-2.251-0.041-1.1704-1.6967 0.82174-2.049 2.2509-0.24359 1.2363 2.0075z"
           id="path1814" />
        <path
           transform="rotate(90 145.58 254.15)"
           d="m98.563 172.96-2.5626 0.0543-1.0678-2.4453 1.3595-2.0557 2.5858 0.12762 1.0681 2.1941z"
           id="path1816" />
        <path
           transform="rotate(90 140.91 258.7)"
           d="m97.773 173.36-2.4347-0.91212-0.41475-2.5542 2.105-1.5748 2.3201 0.7697 0.4146 2.5579z"
           id="path1818" />
        <path
           transform="rotate(90 135.9 263.82)"
           d="m98.563 172.96-2.5626 0.0543-1.0678-2.4453 1.3595-2.0557 2.5858 0.12762 1.0681 2.1941z"
           id="path1820" />
        <path
           transform="rotate(90 131.05 268.56)"
           d="m98.524 172.73-2.2174 0.0614-1.1905-1.8422 1.1023-2.0074 2.1404-0.13775 1.2264 1.8565z"
           id="path1822" />
        <path
           transform="rotate(-90 220.94 162.57)"
           d="m98.722 172.71-2.251-0.041-1.1704-1.6967 0.82174-2.049 2.2509-0.24359 1.2363 2.0075z"
           id="path1824" />
        <path
           transform="rotate(-90 216.2 157.84)"
           d="m98.563 172.96-2.5626 0.0543-1.0678-2.4453 1.3595-2.0557 2.5858 0.12762 1.0681 2.1941z"
           id="path1826" />
        <path
           transform="rotate(-90 211.65 153.18)"
           d="m98.482 172.51-2.0742 0.16609-1.0851-1.8295 1.0013-1.8731 2.074-0.0539 1.1212 1.8559z"
           id="path1828" />
        <path
           transform="rotate(-90 206.53 148.17)"
           d="m99.275 172.97-2.824 0.40102-1.8911-2.0742 1.0686-2.4798 2.5025-0.57216 1.931 1.8844z"
           id="path1830" />
        <path
           transform="rotate(-90 203.18 144.76)"
           d="m98.524 172.73-2.2174 0.0614-1.1905-1.8422 1.1023-2.0074 2.1404-0.13775 1.2264 1.8565z"
           id="path1832" />
        <path
           transform="rotate(90 127.58 272.68)"
           d="m97.773 173.36-2.4347-0.91212-0.41475-2.5542 2.105-1.5748 2.3201 0.7697 0.4146 2.5579z"
           id="path1834" />
        <path
           transform="rotate(90 91.976 307.97)"
           d="m98.826 172.88-2.6232 0.17413-1.2976-2.0451 1.1575-2.3462 2.3467-0.2172 1.4657 2.1721z"
           id="path1836" />
        <path
           transform="rotate(90 87.426 312.42)"
           d="m98.385 172.65-2.0095 0.039-1.0812-1.9113 1.1714-1.9158 1.9969 0.0606 1.0236 1.9605z"
           id="path1838" />
        <path
           transform="rotate(90 15.289 384.55)"
           d="m98.732 172.22-1.9915 0.79005-1.3784-1.6286 0.46346-2.2242 2.0467-0.42412 1.6958 1.5941z"
           id="path1840" />
        <path
           transform="rotate(90 19.792 379.93)"
           d="m98.524 172.73-2.2174 0.0614-1.1905-1.8422 1.1023-2.0074 2.1404-0.13775 1.2264 1.8565z"
           id="path1842" />
        <path
           transform="rotate(90 81.817 318.11)"
           d="m97.773 173.36-2.4347-0.91212-0.41475-2.5542 2.105-1.5748 2.3201 0.7697 0.4146 2.5579z"
           id="path1844" />
        <path
           transform="rotate(90 76.065 323.9)"
           d="m98.563 172.96-2.5626 0.0543-1.0678-2.4453 1.3595-2.0557 2.5858 0.12762 1.0681 2.1941z"
           id="path1846" />
        <path
           transform="rotate(90 69.253 330.37)"
           d="m98.722 172.71-2.251-0.041-1.1704-1.6967 0.82174-2.049 2.2509-0.24359 1.2363 2.0075z"
           id="path1848" />
        <path
           transform="rotate(90 64.521 335.1)"
           d="m98.563 172.96-2.5626 0.0543-1.0678-2.4453 1.3595-2.0557 2.5858 0.12762 1.0681 2.1941z"
           id="path1850" />
        <path
           transform="rotate(90 59.855 339.66)"
           d="m97.773 173.36-2.4347-0.91212-0.41475-2.5542 2.105-1.5748 2.3201 0.7697 0.4146 2.5579z"
           id="path1852" />
        <path
           transform="rotate(90 54.845 344.78)"
           d="m98.563 172.96-2.5626 0.0543-1.0678-2.4453 1.3595-2.0557 2.5858 0.12762 1.0681 2.1941z"
           id="path1854" />
        <path
           transform="rotate(90 49.993 349.52)"
           d="m98.524 172.73-2.2174 0.0614-1.1905-1.8422 1.1023-2.0074 2.1404-0.13775 1.2264 1.8565z"
           id="path1856" />
        <path
           transform="rotate(-90 301.89 243.63)"
           d="m98.722 172.71-2.251-0.041-1.1704-1.6967 0.82174-2.049 2.2509-0.24359 1.2363 2.0075z"
           id="path1858" />
        <path
           transform="rotate(-90 297.16 238.9)"
           d="m98.563 172.96-2.5626 0.0543-1.0678-2.4453 1.3595-2.0557 2.5858 0.12762 1.0681 2.1941z"
           id="path1860" />
        <path
           transform="rotate(-90 292.61 234.23)"
           d="m98.482 172.51-2.0742 0.16609-1.0851-1.8295 1.0013-1.8731 2.074-0.0539 1.1212 1.8559z"
           id="path1862" />
        <path
           transform="rotate(-90 287.49 229.22)"
           d="m99.275 172.97-2.824 0.40102-1.8911-2.0742 1.0686-2.4798 2.5025-0.57216 1.931 1.8844z"
           id="path1864" />
        <path
           transform="rotate(-90 282.75 224.37)"
           d="m98.524 172.73-2.2174 0.0614-1.1905-1.8422 1.1023-2.0074 2.1404-0.13775 1.2264 1.8565z"
           id="path1866" />
        <path
           transform="rotate(90 47.011 352.85)"
           d="m97.773 173.36-2.4347-0.91212-0.41475-2.5542 2.105-1.5748 2.3201 0.7697 0.4146 2.5579z"
           id="path1868" />
        <path
           transform="rotate(93.573 164.79 231.13)"
           d="m97.773 173.36-2.4347-0.91212-0.41475-2.5542 2.105-1.5748 2.3201 0.7697 0.4146 2.5579z"
           id="path1870" />
        <path
           transform="rotate(-90 241.51 332.55)"
           d="m99.253 173.92-3.6381-0.11527-1.9014-2.9724 1.9775-3.2574 3.5022 0.11799 1.712 3.0903z"
           id="path1872" />
        <path
           transform="rotate(-90 315.68 258.11)"
           d="m99.253 173.92-3.6381-0.11527-1.9014-2.9724 1.9775-3.2574 3.5022 0.11799 1.712 3.0903z"
           id="path1874" />
        <path
           transform="rotate(-79.238 77.294 171.95)"
           d="m99.253 173.92-3.6381-0.11527-1.9014-2.9724 1.9775-3.2574 3.5022 0.11799 1.712 3.0903z"
           id="path1876" />
        <path
           transform="rotate(90 49.143 200.24)"
           d="m98.732 172.22-1.9915 0.79005-1.3784-1.6286 0.46346-2.2242 2.0467-0.42412 1.6958 1.5941z"
           id="path1878" />
        <path
           transform="rotate(90 54.645 194.62)"
           d="m98.524 172.73-2.2174 0.0614-1.1905-1.8422 1.1023-2.0074 2.1404-0.13775 1.2264 1.8565z"
           id="path1880" />
        <path
           transform="rotate(90 44.239 205.14)"
           d="m98.826 172.88-2.6232 0.17413-1.2976-2.0451 1.1575-2.3462 2.3467-0.2172 1.4657 2.1721z"
           id="path1882" />
        <path
           transform="rotate(90 39.568 209.81)"
           d="m98.385 172.65-2.0095 0.039-1.0812-1.9113 1.1714-1.9158 1.9969 0.0606 1.0236 1.9605z"
           id="path1884" />
        <path
           transform="rotate(90 34.844 214.54)"
           d="m98.722 172.71-2.251-0.041-1.1704-1.6967 0.82174-2.049 2.2509-0.24359 1.2363 2.0075z"
           id="path1886" />
        <path
           transform="rotate(90 30.112 219.27)"
           d="m98.563 172.96-2.5626 0.0543-1.0678-2.4453 1.3595-2.0557 2.5858 0.12762 1.0681 2.1941z"
           id="path1888" />
        <path
           transform="rotate(90 25.446 223.82)"
           d="m98.482 172.51-2.0742 0.16609-1.0851-1.8295 1.0013-1.8731 2.074-0.0539 1.1212 1.8559z"
           id="path1890" />
        <path
           transform="rotate(90 20.436 228.94)"
           d="m98.563 172.96-2.5626 0.0543-1.0678-2.4453 1.3595-2.0557 2.5858 0.12762 1.0681 2.1941z"
           id="path1892" />
        <path
           transform="rotate(90 15.584 233.68)"
           d="m98.524 172.73-2.2174 0.0614-1.1905-1.8422 1.1023-2.0074 2.1404-0.13775 1.2264 1.8565z"
           id="path1894" />
        <path
           transform="rotate(90 92.314 156.88)"
           d="m98.699 172.55-1.9904 0.41729-1.6987-1.8641 0.84753-1.9848 2.2138-0.56323 1.4954 1.8094z"
           id="path1896" />
        <path
           transform="rotate(90 87.411 161.78)"
           d="m98.826 172.88-2.6232 0.17413-1.2976-2.0451 1.1575-2.3462 2.3467-0.2172 1.4657 2.1721z"
           id="path1898" />
        <path
           transform="rotate(90 82.739 166.45)"
           d="m98.385 172.65-2.0095 0.039-1.0812-1.9113 1.1714-1.9158 1.9969 0.0606 1.0236 1.9605z"
           id="path1900" />
        <path
           transform="rotate(-90 116.45 208.64)"
           d="m98.722 172.71-2.251-0.041-1.1704-1.6967 0.82174-2.049 2.2509-0.24359 1.2363 2.0075z"
           id="path1902" />
        <path
           transform="rotate(-90 111.72 203.91)"
           d="m98.563 172.96-2.5626 0.0543-1.0678-2.4453 1.3595-2.0557 2.5858 0.12762 1.0681 2.1941z"
           id="path1904" />
        <path
           transform="rotate(-90 107.16 199.24)"
           d="m98.482 172.51-2.0742 0.16609-1.0851-1.8295 1.0013-1.8731 2.074-0.0539 1.1212 1.8559z"
           id="path1906" />
        <path
           transform="rotate(-90 102.04 194.23)"
           d="m99.275 172.97-2.824 0.40102-1.8911-2.0742 1.0686-2.4798 2.5025-0.57216 1.931 1.8844z"
           id="path1908" />
        <path
           transform="rotate(-90 97.299 189.38)"
           d="m98.524 172.73-2.2174 0.0614-1.1905-1.8422 1.1023-2.0074 2.1404-0.13775 1.2264 1.8565z"
           id="path1910" />
        <path
           transform="rotate(90 11.407 238.01)"
           d="m98.722 172.71-2.251-0.041-1.1704-1.6967 0.82174-2.049 2.2509-0.24359 1.2363 2.0075z"
           id="path1912" />
        <path
           transform="rotate(90 .93575 248.76)"
           d="m98.482 172.51-2.0742 0.16609-1.0851-1.8295 1.0013-1.8731 2.074-0.0539 1.1212 1.8559z"
           id="path1914" />
        <path
           transform="rotate(90 -3.4884 253.5)"
           d="m99.275 172.97-2.824 0.40102-1.8911-2.0742 1.0686-2.4798 2.5025-0.57216 1.931 1.8844z"
           id="path1916" />
        <path
           transform="rotate(-90 218.74 310.4)"
           d="m97.773 173.36-2.4347-0.91212-0.41475-2.5542 2.105-1.5748 2.3201 0.7697 0.4146 2.5579z"
           id="path1918" />
        <path
           transform="rotate(-90 214.35 305.36)"
           d="m98.563 172.96-2.5626 0.0543-1.0678-2.4453 1.3595-2.0557 2.5858 0.12762 1.0681 2.1941z"
           id="path1920" />
        <path
           transform="rotate(-90 209.83 301.18)"
           d="m98.722 172.71-2.251-0.041-1.1704-1.6967 0.82174-2.049 2.2509-0.24359 1.2363 2.0075z"
           id="path1922" />
        <path
           transform="rotate(-90 205.1 296.45)"
           d="m98.563 172.96-2.5626 0.0543-1.0678-2.4453 1.3595-2.0557 2.5858 0.12762 1.0681 2.1941z"
           id="path1924" />
        <path
           transform="rotate(-90 200.54 291.78)"
           d="m97.773 173.36-2.4347-0.91212-0.41475-2.5542 2.105-1.5748 2.3201 0.7697 0.4146 2.5579z"
           id="path1926" />
        <path
           transform="rotate(-90 195.42 286.77)"
           d="m98.563 172.96-2.5626 0.0543-1.0678-2.4453 1.3595-2.0557 2.5858 0.12762 1.0681 2.1941z"
           id="path1928" />
        <path
           transform="rotate(-90 190.68 281.92)"
           d="m98.524 172.73-2.2174 0.0614-1.1905-1.8422 1.1023-2.0074 2.1404-0.13775 1.2264 1.8565z"
           id="path1930" />
        <path
           transform="rotate(-90 185.2 276.7)"
           d="m97.773 173.36-2.4347-0.91212-0.41475-2.5542 2.105-1.5748 2.3201 0.7697 0.4146 2.5579z"
           id="path1932" />
        <path
           transform="rotate(-90 237.2 328.59)"
           d="m98.722 172.71-2.251-0.041-1.1704-1.6967 0.82174-2.049 2.2509-0.24359 1.2363 2.0075z"
           id="path1934" />
        <path
           transform="rotate(-90 232.47 323.86)"
           d="m98.563 172.96-2.5626 0.0543-1.0678-2.4453 1.3595-2.0557 2.5858 0.12762 1.0681 2.1941z"
           id="path1936" />
        <path
           transform="rotate(-90 227.91 319.19)"
           d="m97.773 173.36-2.4347-0.91212-0.41475-2.5542 2.105-1.5748 2.3201 0.7697 0.4146 2.5579z"
           id="path1938" />
        <path
           transform="rotate(-90 222.79 314.18)"
           d="m98.563 172.96-2.5626 0.0543-1.0678-2.4453 1.3595-2.0557 2.5858 0.12762 1.0681 2.1941z"
           id="path1940" />
        <path
           transform="rotate(90 6.0934 243.96)"
           d="m97.773 173.36-2.4347-0.91212-0.41475-2.5542 2.105-1.5748 2.3201 0.7697 0.4146 2.5579z"
           id="path1942" />
      </g>
    </g>
    <g
       id="g2152"
       stroke="#000000">
      <rect
         transform="scale(1,-1)"
         x="76.297"
         y="-482.03"
         width="158.59"
         height="335.16"
         id="rect1948"
         stroke-width="3"
         fill="#916f6f" />
      <g
         transform="matrix(1 0 0 -1 1.4844 628.91)"
         stroke-miterlimit="3.8"
         id="g2150"
         stroke-width=".68809"
         fill="#c8beb7">
        <path
           transform="rotate(266.6 154.01 99.677)"
           d="m99.253 173.92-3.6381-0.11527-1.9014-2.9724 1.9775-3.2574 3.5022 0.11799 1.712 3.0903z"
           id="path1950" />
        <path
           transform="translate(2.9451 -20.143)"
           d="m98.699 172.55-1.9904 0.41729-1.6987-1.8641 0.84753-1.9848 2.2138-0.56323 1.4954 1.8094z"
           id="path1952" />
        <path
           transform="translate(-8.1718 -20.031)"
           d="m98.524 172.73-2.2174 0.0614-1.1905-1.8422 1.1023-2.0074 2.1404-0.13775 1.2264 1.8565z"
           id="path1954" />
        <path
           transform="translate(12.752 -20.143)"
           d="m98.826 172.88-2.6232 0.17413-1.2976-2.0451 1.1575-2.3462 2.3467-0.2172 1.4657 2.1721z"
           id="path1956" />
        <path
           transform="translate(22.094 -20.143)"
           d="m98.385 172.65-2.0095 0.039-1.0812-1.9113 1.1714-1.9158 1.9969 0.0606 1.0236 1.9605z"
           id="path1958" />
        <path
           transform="translate(31.542 -20.143)"
           d="m98.722 172.71-2.251-0.041-1.1704-1.6967 0.82174-2.049 2.2509-0.24359 1.2363 2.0075z"
           id="path1960" />
        <path
           transform="translate(41.006 -20.143)"
           d="m98.563 172.96-2.5626 0.0543-1.0678-2.4453 1.3595-2.0557 2.5858 0.12762 1.0681 2.1941z"
           id="path1962" />
        <path
           transform="translate(50.225 -20.031)"
           d="m97.773 173.36-2.4347-0.91212-0.41475-2.5542 2.105-1.5748 2.3201 0.7697 0.4146 2.5579z"
           id="path1964" />
        <path
           transform="translate(60.358 -20.143)"
           d="m98.563 172.96-2.5626 0.0543-1.0678-2.4453 1.3595-2.0557 2.5858 0.12762 1.0681 2.1941z"
           id="path1966" />
        <path
           transform="translate(69.95 -20.031)"
           d="m98.524 172.73-2.2174 0.0614-1.1905-1.8422 1.1023-2.0074 2.1404-0.13775 1.2264 1.8565z"
           id="path1968" />
        <path
           transform="translate(79.18 -19.479)"
           d="m98.563 172.96-2.5626 0.0543-1.0678-2.4453 1.3595-2.0557 2.5858 0.12762 1.0681 2.1941z"
           id="path1970" />
        <path
           transform="translate(100.7 -19.557)"
           d="m98.699 172.55-1.9904 0.41729-1.6987-1.8641 0.84753-1.9848 2.2138-0.56323 1.4954 1.8094z"
           id="path1972" />
        <path
           transform="translate(89.578 -19.445)"
           d="m98.524 172.73-2.2174 0.0614-1.1905-1.8422 1.1023-2.0074 2.1404-0.13775 1.2264 1.8565z"
           id="path1974" />
        <path
           transform="translate(110.5 -19.557)"
           d="m98.826 172.88-2.6232 0.17413-1.2976-2.0451 1.1575-2.3462 2.3467-0.2172 1.4657 2.1721z"
           id="path1976" />
        <path
           transform="translate(119.84 -19.557)"
           d="m98.385 172.65-2.0095 0.039-1.0812-1.9113 1.1714-1.9158 1.9969 0.0606 1.0236 1.9605z"
           id="path1978" />
        <path
           transform="translate(.94512 306.37)"
           d="m98.699 172.55-1.9904 0.41729-1.6987-1.8641 0.84753-1.9848 2.2138-0.56323 1.4954 1.8094z"
           id="path1980" />
        <path
           transform="translate(-10.172 306.49)"
           d="m98.524 172.73-2.2174 0.0614-1.1905-1.8422 1.1023-2.0074 2.1404-0.13775 1.2264 1.8565z"
           id="path1982" />
        <path
           transform="translate(10.752 306.37)"
           d="m98.826 172.88-2.6232 0.17413-1.2976-2.0451 1.1575-2.3462 2.3467-0.2172 1.4657 2.1721z"
           id="path1984" />
        <path
           transform="translate(20.094 306.37)"
           d="m98.385 172.65-2.0095 0.039-1.0812-1.9113 1.1714-1.9158 1.9969 0.0606 1.0236 1.9605z"
           id="path1986" />
        <path
           transform="translate(27.542 306.37)"
           d="m98.722 172.71-2.251-0.041-1.1704-1.6967 0.82174-2.049 2.2509-0.24359 1.2363 2.0075z"
           id="path1988" />
        <path
           transform="translate(37.006 306.37)"
           d="m98.563 172.96-2.5626 0.0543-1.0678-2.4453 1.3595-2.0557 2.5858 0.12762 1.0681 2.1941z"
           id="path1990" />
        <path
           transform="translate(46.225 306.49)"
           d="m97.773 173.36-2.4347-0.91212-0.41475-2.5542 2.105-1.5748 2.3201 0.7697 0.4146 2.5579z"
           id="path1992" />
        <path
           transform="translate(56.358 306.37)"
           d="m98.563 172.96-2.5626 0.0543-1.0678-2.4453 1.3595-2.0557 2.5858 0.12762 1.0681 2.1941z"
           id="path1994" />
        <path
           transform="translate(65.95 305.9)"
           d="m98.524 172.73-2.2174 0.0614-1.1905-1.8422 1.1023-2.0074 2.1404-0.13775 1.2264 1.8565z"
           id="path1996" />
        <path
           transform="translate(75.18 307.04)"
           d="m98.563 172.96-2.5626 0.0543-1.0678-2.4453 1.3595-2.0557 2.5858 0.12762 1.0681 2.1941z"
           id="path1998" />
        <path
           transform="translate(96.695 306.96)"
           d="m98.699 172.55-1.9904 0.41729-1.6987-1.8641 0.84753-1.9848 2.2138-0.56323 1.4954 1.8094z"
           id="path2000" />
        <path
           transform="translate(85.578 307.07)"
           d="m98.524 172.73-2.2174 0.0614-1.1905-1.8422 1.1023-2.0074 2.1404-0.13775 1.2264 1.8565z"
           id="path2002" />
        <path
           transform="translate(106.5 306.96)"
           d="m98.826 172.88-2.6232 0.17413-1.2976-2.0451 1.1575-2.3462 2.3467-0.2172 1.4657 2.1721z"
           id="path2004" />
        <path
           transform="translate(115.84 306.96)"
           d="m98.385 172.65-2.0095 0.039-1.0812-1.9113 1.1714-1.9158 1.9969 0.0606 1.0236 1.9605z"
           id="path2006" />
        <path
           transform="rotate(90 6.036 386.34)"
           d="m98.732 172.22-1.9915 0.79005-1.3784-1.6286 0.46346-2.2242 2.0467-0.42412 1.6958 1.5941z"
           id="path2008" />
        <path
           transform="rotate(90 169.26 230.58)"
           d="m98.385 172.65-2.0095 0.039-1.0812-1.9113 1.1714-1.9158 1.9969 0.0606 1.0236 1.9605z"
           id="path2010" />
        <path
           transform="rotate(90 96.344 303.59)"
           d="m98.732 172.22-1.9915 0.79005-1.3784-1.6286 0.46346-2.2242 2.0467-0.42412 1.6958 1.5941z"
           id="path2012" />
        <path
           transform="rotate(90 100.85 298.97)"
           d="m98.524 172.73-2.2174 0.0614-1.1905-1.8422 1.1023-2.0074 2.1404-0.13775 1.2264 1.8565z"
           id="path2014" />
        <path
           transform="rotate(90 159.46 240.43)"
           d="m97.773 173.36-2.4347-0.91212-0.41475-2.5542 2.105-1.5748 2.3201 0.7697 0.4146 2.5579z"
           id="path2016" />
        <path
           transform="rotate(90 154.48 244.9)"
           d="m98.563 172.96-2.5626 0.0543-1.0678-2.4453 1.3595-2.0557 2.5858 0.12762 1.0681 2.1941z"
           id="path2018" />
        <path
           transform="rotate(90 150.31 249.41)"
           d="m98.722 172.71-2.251-0.041-1.1704-1.6967 0.82174-2.049 2.2509-0.24359 1.2363 2.0075z"
           id="path2020" />
        <path
           transform="rotate(90 145.58 254.15)"
           d="m98.563 172.96-2.5626 0.0543-1.0678-2.4453 1.3595-2.0557 2.5858 0.12762 1.0681 2.1941z"
           id="path2022" />
        <path
           transform="rotate(90 140.91 258.7)"
           d="m97.773 173.36-2.4347-0.91212-0.41475-2.5542 2.105-1.5748 2.3201 0.7697 0.4146 2.5579z"
           id="path2024" />
        <path
           transform="rotate(90 135.9 263.82)"
           d="m98.563 172.96-2.5626 0.0543-1.0678-2.4453 1.3595-2.0557 2.5858 0.12762 1.0681 2.1941z"
           id="path2026" />
        <path
           transform="rotate(90 131.05 268.56)"
           d="m98.524 172.73-2.2174 0.0614-1.1905-1.8422 1.1023-2.0074 2.1404-0.13775 1.2264 1.8565z"
           id="path2028" />
        <path
           transform="rotate(-90 220.94 162.57)"
           d="m98.722 172.71-2.251-0.041-1.1704-1.6967 0.82174-2.049 2.2509-0.24359 1.2363 2.0075z"
           id="path2030" />
        <path
           transform="rotate(-90 216.2 157.84)"
           d="m98.563 172.96-2.5626 0.0543-1.0678-2.4453 1.3595-2.0557 2.5858 0.12762 1.0681 2.1941z"
           id="path2032" />
        <path
           transform="rotate(-90 211.65 153.18)"
           d="m98.482 172.51-2.0742 0.16609-1.0851-1.8295 1.0013-1.8731 2.074-0.0539 1.1212 1.8559z"
           id="path2034" />
        <path
           transform="rotate(-90 206.53 148.17)"
           d="m99.275 172.97-2.824 0.40102-1.8911-2.0742 1.0686-2.4798 2.5025-0.57216 1.931 1.8844z"
           id="path2036" />
        <path
           transform="rotate(-90 203.18 144.76)"
           d="m98.524 172.73-2.2174 0.0614-1.1905-1.8422 1.1023-2.0074 2.1404-0.13775 1.2264 1.8565z"
           id="path2038" />
        <path
           transform="rotate(90 127.58 272.68)"
           d="m97.773 173.36-2.4347-0.91212-0.41475-2.5542 2.105-1.5748 2.3201 0.7697 0.4146 2.5579z"
           id="path2040" />
        <path
           transform="rotate(90 91.976 307.97)"
           d="m98.826 172.88-2.6232 0.17413-1.2976-2.0451 1.1575-2.3462 2.3467-0.2172 1.4657 2.1721z"
           id="path2042" />
        <path
           transform="rotate(90 87.426 312.42)"
           d="m98.385 172.65-2.0095 0.039-1.0812-1.9113 1.1714-1.9158 1.9969 0.0606 1.0236 1.9605z"
           id="path2044" />
        <path
           transform="rotate(90 15.289 384.55)"
           d="m98.732 172.22-1.9915 0.79005-1.3784-1.6286 0.46346-2.2242 2.0467-0.42412 1.6958 1.5941z"
           id="path2046" />
        <path
           transform="rotate(90 19.792 379.93)"
           d="m98.524 172.73-2.2174 0.0614-1.1905-1.8422 1.1023-2.0074 2.1404-0.13775 1.2264 1.8565z"
           id="path2048" />
        <path
           transform="rotate(90 81.817 318.11)"
           d="m97.773 173.36-2.4347-0.91212-0.41475-2.5542 2.105-1.5748 2.3201 0.7697 0.4146 2.5579z"
           id="path2050" />
        <path
           transform="rotate(90 76.065 323.9)"
           d="m98.563 172.96-2.5626 0.0543-1.0678-2.4453 1.3595-2.0557 2.5858 0.12762 1.0681 2.1941z"
           id="path2052" />
        <path
           transform="rotate(90 69.253 330.37)"
           d="m98.722 172.71-2.251-0.041-1.1704-1.6967 0.82174-2.049 2.2509-0.24359 1.2363 2.0075z"
           id="path2054" />
        <path
           transform="rotate(90 64.521 335.1)"
           d="m98.563 172.96-2.5626 0.0543-1.0678-2.4453 1.3595-2.0557 2.5858 0.12762 1.0681 2.1941z"
           id="path2056" />
        <path
           transform="rotate(90 59.855 339.66)"
           d="m97.773 173.36-2.4347-0.91212-0.41475-2.5542 2.105-1.5748 2.3201 0.7697 0.4146 2.5579z"
           id="path2058" />
        <path
           transform="rotate(90 54.845 344.78)"
           d="m98.563 172.96-2.5626 0.0543-1.0678-2.4453 1.3595-2.0557 2.5858 0.12762 1.0681 2.1941z"
           id="path2060" />
        <path
           transform="rotate(90 49.993 349.52)"
           d="m98.524 172.73-2.2174 0.0614-1.1905-1.8422 1.1023-2.0074 2.1404-0.13775 1.2264 1.8565z"
           id="path2062" />
        <path
           transform="rotate(-90 301.89 243.63)"
           d="m98.722 172.71-2.251-0.041-1.1704-1.6967 0.82174-2.049 2.2509-0.24359 1.2363 2.0075z"
           id="path2064" />
        <path
           transform="rotate(-90 297.16 238.9)"
           d="m98.563 172.96-2.5626 0.0543-1.0678-2.4453 1.3595-2.0557 2.5858 0.12762 1.0681 2.1941z"
           id="path2066" />
        <path
           transform="rotate(-90 292.61 234.23)"
           d="m98.482 172.51-2.0742 0.16609-1.0851-1.8295 1.0013-1.8731 2.074-0.0539 1.1212 1.8559z"
           id="path2068" />
        <path
           transform="rotate(-90 287.49 229.22)"
           d="m99.275 172.97-2.824 0.40102-1.8911-2.0742 1.0686-2.4798 2.5025-0.57216 1.931 1.8844z"
           id="path2070" />
        <path
           transform="rotate(-90 282.75 224.37)"
           d="m98.524 172.73-2.2174 0.0614-1.1905-1.8422 1.1023-2.0074 2.1404-0.13775 1.2264 1.8565z"
           id="path2072" />
        <path
           transform="rotate(90 47.011 352.85)"
           d="m97.773 173.36-2.4347-0.91212-0.41475-2.5542 2.105-1.5748 2.3201 0.7697 0.4146 2.5579z"
           id="path2074" />
        <path
           transform="rotate(93.573 164.79 231.13)"
           d="m97.773 173.36-2.4347-0.91212-0.41475-2.5542 2.105-1.5748 2.3201 0.7697 0.4146 2.5579z"
           id="path2076" />
        <path
           transform="rotate(-90 241.51 332.55)"
           d="m99.253 173.92-3.6381-0.11527-1.9014-2.9724 1.9775-3.2574 3.5022 0.11799 1.712 3.0903z"
           id="path2078" />
        <path
           transform="rotate(-90 315.68 258.11)"
           d="m99.253 173.92-3.6381-0.11527-1.9014-2.9724 1.9775-3.2574 3.5022 0.11799 1.712 3.0903z"
           id="path2080" />
        <path
           transform="rotate(-79.238 77.294 171.95)"
           d="m99.253 173.92-3.6381-0.11527-1.9014-2.9724 1.9775-3.2574 3.5022 0.11799 1.712 3.0903z"
           id="path2082" />
        <path
           transform="rotate(90 49.143 200.24)"
           d="m98.732 172.22-1.9915 0.79005-1.3784-1.6286 0.46346-2.2242 2.0467-0.42412 1.6958 1.5941z"
           id="path2084" />
        <path
           transform="rotate(90 54.645 194.62)"
           d="m98.524 172.73-2.2174 0.0614-1.1905-1.8422 1.1023-2.0074 2.1404-0.13775 1.2264 1.8565z"
           id="path2086" />
        <path
           transform="rotate(90 44.239 205.14)"
           d="m98.826 172.88-2.6232 0.17413-1.2976-2.0451 1.1575-2.3462 2.3467-0.2172 1.4657 2.1721z"
           id="path2088" />
        <path
           transform="rotate(90 39.568 209.81)"
           d="m98.385 172.65-2.0095 0.039-1.0812-1.9113 1.1714-1.9158 1.9969 0.0606 1.0236 1.9605z"
           id="path2090" />
        <path
           transform="rotate(90 34.844 214.54)"
           d="m98.722 172.71-2.251-0.041-1.1704-1.6967 0.82174-2.049 2.2509-0.24359 1.2363 2.0075z"
           id="path2092" />
        <path
           transform="rotate(90 30.112 219.27)"
           d="m98.563 172.96-2.5626 0.0543-1.0678-2.4453 1.3595-2.0557 2.5858 0.12762 1.0681 2.1941z"
           id="path2094" />
        <path
           transform="rotate(90 25.446 223.82)"
           d="m98.482 172.51-2.0742 0.16609-1.0851-1.8295 1.0013-1.8731 2.074-0.0539 1.1212 1.8559z"
           id="path2096" />
        <path
           transform="rotate(90 20.436 228.94)"
           d="m98.563 172.96-2.5626 0.0543-1.0678-2.4453 1.3595-2.0557 2.5858 0.12762 1.0681 2.1941z"
           id="path2098" />
        <path
           transform="rotate(90 15.584 233.68)"
           d="m98.524 172.73-2.2174 0.0614-1.1905-1.8422 1.1023-2.0074 2.1404-0.13775 1.2264 1.8565z"
           id="path2100" />
        <path
           transform="rotate(90 92.314 156.88)"
           d="m98.699 172.55-1.9904 0.41729-1.6987-1.8641 0.84753-1.9848 2.2138-0.56323 1.4954 1.8094z"
           id="path2102" />
        <path
           transform="rotate(90 87.411 161.78)"
           d="m98.826 172.88-2.6232 0.17413-1.2976-2.0451 1.1575-2.3462 2.3467-0.2172 1.4657 2.1721z"
           id="path2104" />
        <path
           transform="rotate(90 82.739 166.45)"
           d="m98.385 172.65-2.0095 0.039-1.0812-1.9113 1.1714-1.9158 1.9969 0.0606 1.0236 1.9605z"
           id="path2106" />
        <path
           transform="rotate(-90 116.45 208.64)"
           d="m98.722 172.71-2.251-0.041-1.1704-1.6967 0.82174-2.049 2.2509-0.24359 1.2363 2.0075z"
           id="path2108" />
        <path
           transform="rotate(-90 111.72 203.91)"
           d="m98.563 172.96-2.5626 0.0543-1.0678-2.4453 1.3595-2.0557 2.5858 0.12762 1.0681 2.1941z"
           id="path2110" />
        <path
           transform="rotate(-90 107.16 199.24)"
           d="m98.482 172.51-2.0742 0.16609-1.0851-1.8295 1.0013-1.8731 2.074-0.0539 1.1212 1.8559z"
           id="path2112" />
        <path
           transform="rotate(-90 102.04 194.23)"
           d="m99.275 172.97-2.824 0.40102-1.8911-2.0742 1.0686-2.4798 2.5025-0.57216 1.931 1.8844z"
           id="path2114" />
        <path
           transform="rotate(-90 97.299 189.38)"
           d="m98.524 172.73-2.2174 0.0614-1.1905-1.8422 1.1023-2.0074 2.1404-0.13775 1.2264 1.8565z"
           id="path2116" />
        <path
           transform="rotate(90 11.407 238.01)"
           d="m98.722 172.71-2.251-0.041-1.1704-1.6967 0.82174-2.049 2.2509-0.24359 1.2363 2.0075z"
           id="path2118" />
        <path
           transform="rotate(90 .93575 248.76)"
           d="m98.482 172.51-2.0742 0.16609-1.0851-1.8295 1.0013-1.8731 2.074-0.0539 1.1212 1.8559z"
           id="path2120" />
        <path
           transform="rotate(90 -3.4884 253.5)"
           d="m99.275 172.97-2.824 0.40102-1.8911-2.0742 1.0686-2.4798 2.5025-0.57216 1.931 1.8844z"
           id="path2122" />
        <path
           transform="rotate(-90 218.74 310.4)"
           d="m97.773 173.36-2.4347-0.91212-0.41475-2.5542 2.105-1.5748 2.3201 0.7697 0.4146 2.5579z"
           id="path2124" />
        <path
           transform="rotate(-90 214.35 305.36)"
           d="m98.563 172.96-2.5626 0.0543-1.0678-2.4453 1.3595-2.0557 2.5858 0.12762 1.0681 2.1941z"
           id="path2126" />
        <path
           transform="rotate(-90 209.83 301.18)"
           d="m98.722 172.71-2.251-0.041-1.1704-1.6967 0.82174-2.049 2.2509-0.24359 1.2363 2.0075z"
           id="path2128" />
        <path
           transform="rotate(-90 205.1 296.45)"
           d="m98.563 172.96-2.5626 0.0543-1.0678-2.4453 1.3595-2.0557 2.5858 0.12762 1.0681 2.1941z"
           id="path2130" />
        <path
           transform="rotate(-90 200.54 291.78)"
           d="m97.773 173.36-2.4347-0.91212-0.41475-2.5542 2.105-1.5748 2.3201 0.7697 0.4146 2.5579z"
           id="path2132" />
        <path
           transform="rotate(-90 195.42 286.77)"
           d="m98.563 172.96-2.5626 0.0543-1.0678-2.4453 1.3595-2.0557 2.5858 0.12762 1.0681 2.1941z"
           id="path2134" />
        <path
           transform="rotate(-90 190.68 281.92)"
           d="m98.524 172.73-2.2174 0.0614-1.1905-1.8422 1.1023-2.0074 2.1404-0.13775 1.2264 1.8565z"
           id="path2136" />
        <path
           transform="rotate(-90 185.2 276.7)"
           d="m97.773 173.36-2.4347-0.91212-0.41475-2.5542 2.105-1.5748 2.3201 0.7697 0.4146 2.5579z"
           id="path2138" />
        <path
           transform="rotate(-90 237.2 328.59)"
           d="m98.722 172.71-2.251-0.041-1.1704-1.6967 0.82174-2.049 2.2509-0.24359 1.2363 2.0075z"
           id="path2140" />
        <path
           transform="rotate(-90 232.47 323.86)"
           d="m98.563 172.96-2.5626 0.0543-1.0678-2.4453 1.3595-2.0557 2.5858 0.12762 1.0681 2.1941z"
           id="path2142" />
        <path
           transform="rotate(-90 227.91 319.19)"
           d="m97.773 173.36-2.4347-0.91212-0.41475-2.5542 2.105-1.5748 2.3201 0.7697 0.4146 2.5579z"
           id="path2144" />
        <path
           transform="rotate(-90 222.79 314.18)"
           d="m98.563 172.96-2.5626 0.0543-1.0678-2.4453 1.3595-2.0557 2.5858 0.12762 1.0681 2.1941z"
           id="path2146" />
        <path
           transform="rotate(90 6.0934 243.96)"
           d="m97.773 173.36-2.4347-0.91212-0.41475-2.5542 2.105-1.5748 2.3201 0.7697 0.4146 2.5579z"
           id="path2148" />
      </g>
    </g>
    <g
       id="g2160"
       stroke="#000000">
      <path
         d="m178.99 181.4"
         id="path2154"
         stroke-width="1px"
         fill="none" />
      <path
         transform="translate(-448.17 -36.503)"
         d="m643.67 471.42v38.174l29.285 0.0547-21.75-38.229z"
         id="path2156"
         stroke-width="1.0073px"
         fill="#4d3737" />
      <path
         d="m108.55 169.71h95.061l21.679-10.119 0.53523-3.3954-140.06 0.20016z"
         id="path2158"
         stroke-width="1px"
         fill="#af9595" />
    </g>
    <g
       transform="matrix(1.1788 -.13963 0 1 -15.184 14.424)"
       id="g2168"
       stroke="#000000">
      <path
         transform="translate(-448.17 -36.503)"
         d="m627.47 218.78-2.9766 3.4238v318.46l2.9766-2.9766z"
         stroke-miterlimit="1"
         id="path2162"
         stroke-width="1.0076"
         fill="#e3ddda" />
      <path
         transform="translate(-448.17 -36.503)"
         d="m535.11 189.79-1.9961 1.998 91.062 29.486 2.9883-3.373z"
         id="path2164"
         stroke-width="1.002"
         fill="#9d8c81" />
      <rect
         transform="matrix(.95137 .30806 0 -1 0 0)"
         x="89.395"
         y="-446.62"
         width="95.919"
         height="317.97"
         id="rect2166"
         stroke-width="1.7168"
         fill="#c8beb7" />
    </g>
    <path
       d="m225.29 159.59-21.75 9.8111v265l21.75 37.672z"
       id="path2170"
       stroke-width="1px"
       stroke="#000000"
       fill="none" />
    <rect
       transform="scale(-1,1)"
       x="-203.54"
       y="169.72"
       width="8.0344"
       height="264.69"
       style="paint-order:stroke fill markers"
       id="rect2172"
       fill="#815f5f" />
    <rect
       x="234.89"
       y="145.31"
       width="9.4062"
       height="338.22"
       style="paint-order:stroke fill markers"
       id="rect2174"
       fill="#916f6f" />
    <g
       id="g2180"
       stroke="#000000">
      <rect
         x="262.33"
         y="316.46"
         width="18.25"
         height="29.529"
         style="paint-order:stroke fill markers"
         id="rect2176"
         stroke-width="2.079"
         fill="#d96600" />
      <circle
         cx="271.33"
         cy="336.21"
         r="6.6791"
         style="paint-order:stroke fill markers"
         id="circle2178"
         stroke-width="1.2207"
         fill="#916f6f" />
    </g>
    <g
       transform="matrix(.18134 0 0 .19274 259.18 242.46)"
       id="g2232">
      <g
         transform="translate(-11.688 -4.8647)"
         id="g2230">
        <g
           id="g2228">
          <g
             aria-label="jt"
             id="g2186"
             fill="#ff0000">
            <path
               d="m37.477 245.12v-7.9297h-7.9297v-7.9297h-7.9297v-7.9297h-7.9297v-95.339h63.529v63.529h15.859v-103.18h63.62v134.99h-8.0208v7.9297h-7.9297v7.9297h-7.9297v7.9297zm55.599-182.66v-55.599h63.62v55.599z"
               id="path2182" />
            <path
               d="m228.43 245.12v-7.9297h-7.9297v-7.9297h-8.0208v-7.9297h-7.9297v-150.94h-15.859v-47.669h15.859v-15.859h63.529v15.859h79.479v47.669h-79.479v111.2h15.951v-95.247h63.529v134.99h-7.9297v7.9297h-7.9297v7.9297h-8.0208v7.9297z"
               id="path2184" />
          </g>
          <g
             aria-label="morris"
             id="g2200"
             fill="#ffad00">
            <path
               d="m363.76 86.849v-59.564h15.882v3.9648h1.9824v-1.9824h1.9824v-1.9824h9.9349v1.9824h1.9824v1.9824h3.9876v-1.9824h1.9824v-1.9824h11.917v1.9824h1.9824v1.9824h1.9824v1.9824h1.9824v53.617h-15.882v-45.664h-3.9648v45.664h-15.905v-45.664h-3.9648v45.664z"
               id="path2188" />
            <path
               d="m447.23 72.95v-31.764h-3.9648v31.764zm-13.9 13.9v-1.9824h-1.9824v-1.9824h-1.9824v-1.9824h-1.9824v-47.669h1.9824v-1.9824h1.9824v-1.9824h1.9824v-1.9824h23.835v1.9824h1.9824v1.9824h1.9824v1.9824h2.0052v47.669h-2.0052v1.9824h-1.9824v1.9824h-1.9824v1.9824z"
               id="path2190" />
            <path
               d="m490.98 49.138v-7.9525h-3.9648v7.9525zm-19.847 37.712v-59.564h29.782v1.9824h1.9824v1.9824h1.9824v1.9824h2.0052v19.87h-2.0052v1.9824h-1.9824v1.9824h1.9824v1.9824h2.0052v27.799h-15.905v-23.812h-3.9648v23.812z"
               id="path2192" />
            <path
               d="m534.73 49.138v-7.9525h-3.9648v7.9525zm-19.847 37.712v-59.564h29.782v1.9824h1.9824v1.9824h1.9824v1.9824h2.0052v19.87h-2.0052v1.9824h-1.9824v1.9824h1.9824v1.9824h2.0052v27.799h-15.905v-23.812h-3.9648v23.812z"
               id="path2194" />
            <path
               d="m558.63 86.849v-39.694h15.882v39.694zm0-45.664v-13.9h15.882v13.9z"
               id="path2196" />
            <path
               d="m588.46 86.849v-1.9824h-1.9824v-1.9824h-1.9824v-1.9824h-1.9824v-13.9h15.882v5.9473h3.9648v-9.9121h-13.9v-1.9824h-1.9824v-2.0052h-1.9824v-1.9824h-1.9824v-23.835h1.9824v-1.9824h1.9824v-1.9824h1.9824v-1.9824h23.835v1.9824h1.9824v1.9824h1.9824v1.9824h2.0052v13.923h-15.905v-5.9701h-3.9648v9.9349h13.9v1.9824h1.9824v1.9824h1.9824v1.9824h2.0052v23.835h-2.0052v1.9824h-1.9824v1.9824h-1.9824v1.9824z"
               id="path2198" />
          </g>
          <g
             aria-label="&lt;bytes&gt;"
             id="g2216"
             fill="#000000">
            <path
               d="m361.22 123.06h8.1667v8.1667h-8.1667zm8.1667-8.1667h8.1667v8.1667h-8.1667zm8.1667-8.1667h8.1667v8.1667h-8.1667zm0 32.667h8.1667v8.1667h-8.1667zm-8.1667-8.1667h8.1667v8.1667h-8.1667z"
               id="path2202" />
            <path
               d="m434.72 114.89h8.1667v40.833h-8.1667zm-32.667-24.5h8.1667v16.333h24.5v8.1667h-24.5v40.833h24.5v8.1667h-32.667z"
               id="path2204" />
            <path
               d="m459.22 163.89h8.1667v8.1667h-8.1667zm8.1667 8.1667h24.5v8.1667h-24.5zm24.5-65.333h8.1667v65.333h-8.1667v-16.333h-24.5v-8.1667h24.5zm-32.667 0h8.1667v40.833h-8.1667z"
               id="path2206" />
            <path
               d="m524.55 98.556h8.1667v8.1667h16.333v8.1667h-16.333v40.833h-8.1667v-40.833h-8.1667v-8.1667h8.1667zm8.1667 57.167h16.333v8.1667h-16.333z"
               id="path2208" />
            <path
               d="m598.05 147.56h8.1667v8.1667h-8.1667zm-24.5 8.1667h24.5v8.1667h-24.5zm-8.1667-40.833h8.1667v16.333h24.5v-16.333h8.1667v24.5h-32.667v16.333h-8.1667zm8.1667-8.1667h24.5v8.1667h-24.5z"
               id="path2210" />
            <path
               d="m622.55 114.89h8.1667v16.333h-8.1667zm32.667 24.5h8.1667v16.333h-8.1667zm-24.5 16.333h24.5v8.1667h-24.5zm-8.1667-8.1667h8.1667v8.1667h-8.1667zm8.1667-16.333h24.5v8.1667h-24.5zm24.5-16.333h8.1667v8.1667h-8.1667zm-24.5-8.1667h24.5v8.1667h-24.5z"
               id="path2212" />
            <path
               d="m679.72 139.39h8.1667v8.1667h-8.1667zm8.1667-8.1667h8.1667v8.1667h-8.1667zm8.1667-8.1667h8.1667v8.1667h-8.1667zm-8.1667-8.1667h8.1667v8.1667h-8.1667zm-8.1667-8.1667h8.1667v8.1667h-8.1667z"
               id="path2214" />
          </g>
          <g
             aria-label=".com"
             id="g2226"
             fill="#000000">
            <path
               d="m509.23 215.21h10.828v13.105h-10.828z"
               id="path2218" />
            <path
               d="m586.75 225.86q-3.1797 1.8477-6.5742 2.75-3.3516 0.94531-6.875 0.94531-11.172 0-17.488-6.7031-6.2734-6.7031-6.2734-18.562 0-11.859 6.2734-18.562 6.3164-6.7031 17.488-6.7031 3.4805 0 6.7891 0.90235 3.3086 0.90234 6.6602 2.793v8.293q-3.1367-2.793-6.3164-4.0391-3.1367-1.2461-7.1328-1.2461-7.4336 0-11.43 4.8125-3.9961 4.8125-3.9961 13.75 0 8.8945 3.9961 13.75 4.0391 4.8125 11.43 4.8125 4.125 0 7.3906-1.2461 3.2656-1.2891 6.0586-3.9531z"
               id="path2220" />
            <path
               d="m620.57 185.73q-6.0156 0-9.1094 4.6836t-3.0938 13.879q0 9.1523 3.0938 13.879 3.0938 4.6836 9.1094 4.6836 6.0586 0 9.1523-4.6836 3.0938-4.7266 3.0938-13.879 0-9.1953-3.0938-13.879t-9.1523-4.6836zm0-6.7031q10.012 0 15.297 6.4883 5.3281 6.4883 5.3281 18.777 0 12.332-5.2852 18.82-5.2852 6.4453-15.34 6.4453-10.012 0-15.297-6.4453-5.2852-6.4883-5.2852-18.82 0-12.289 5.2852-18.777 5.2852-6.4883 15.297-6.4883z"
               id="path2222" />
            <path
               d="m669.85 228.31v-29.477q0-6.6172-1.0742-9.2383-1.0312-2.6641-3.8242-2.6641-2.75 0-4.4688 4.125-1.6758 4.125-1.6758 11.172v26.082h-7.2617v-36.566q0-8.1211-0.25781-9.9258h6.4023l0.25781 5.457v2.0625h0.0859q1.4609-4.3828 3.6953-6.3594 2.2344-2.0195 5.5859-2.0195 3.7812 0 5.6289 2.0625 1.8906 2.0625 2.707 6.3594h0.0859q1.7188-4.5547 4.082-6.4883 2.4062-1.9336 6.0586-1.9336 5.0703 0 7.2617 3.6953 2.1914 3.6953 2.1914 12.676v30.98h-7.2188v-29.477q0-6.6172-1.0742-9.2383-1.0312-2.6641-3.8242-2.6641-2.8359 0-4.5117 3.6094-1.6328 3.6094-1.6328 10.828v26.941z"
               id="path2224" />
          </g>
        </g>
      </g>
    </g>
    <g
       transform="matrix(1.0022 .20946 .010472 1 -100.58 -56.86)"
       id="g2238"
       stroke="#000000">
      <rect
         x="262.33"
         y="316.46"
         width="18.25"
         height="29.529"
         style="paint-order:stroke fill markers"
         id="rect2234"
         stroke-width="2.079"
         fill="#d96600" />
      <circle
         cx="271.33"
         cy="336.21"
         r="6.6791"
         style="paint-order:stroke fill markers"
         id="circle2236"
         stroke-width="1.2207"
         fill="#916f6f" />
    </g>
    <g
       transform="matrix(.13735 .026382 -.00025489 .14604 91.705 238.62)"
       id="g2290">
      <g
         transform="translate(-11.688 -4.8647)"
         id="g2288">
        <g
           id="g2286">
          <g
             aria-label="jt"
             id="g2244"
             fill="#ff0000">
            <path
               d="m37.477 245.12v-7.9297h-7.9297v-7.9297h-7.9297v-7.9297h-7.9297v-95.339h63.529v63.529h15.859v-103.18h63.62v134.99h-8.0208v7.9297h-7.9297v7.9297h-7.9297v7.9297zm55.599-182.66v-55.599h63.62v55.599z"
               id="path2240" />
            <path
               d="m228.43 245.12v-7.9297h-7.9297v-7.9297h-8.0208v-7.9297h-7.9297v-150.94h-15.859v-47.669h15.859v-15.859h63.529v15.859h79.479v47.669h-79.479v111.2h15.951v-95.247h63.529v134.99h-7.9297v7.9297h-7.9297v7.9297h-8.0208v7.9297z"
               id="path2242" />
          </g>
          <g
             aria-label="morris"
             id="g2258"
             fill="#ffad00">
            <path
               d="m363.76 86.849v-59.564h15.882v3.9648h1.9824v-1.9824h1.9824v-1.9824h9.9349v1.9824h1.9824v1.9824h3.9876v-1.9824h1.9824v-1.9824h11.917v1.9824h1.9824v1.9824h1.9824v1.9824h1.9824v53.617h-15.882v-45.664h-3.9648v45.664h-15.905v-45.664h-3.9648v45.664z"
               id="path2246" />
            <path
               d="m447.23 72.95v-31.764h-3.9648v31.764zm-13.9 13.9v-1.9824h-1.9824v-1.9824h-1.9824v-1.9824h-1.9824v-47.669h1.9824v-1.9824h1.9824v-1.9824h1.9824v-1.9824h23.835v1.9824h1.9824v1.9824h1.9824v1.9824h2.0052v47.669h-2.0052v1.9824h-1.9824v1.9824h-1.9824v1.9824z"
               id="path2248" />
            <path
               d="m490.98 49.138v-7.9525h-3.9648v7.9525zm-19.847 37.712v-59.564h29.782v1.9824h1.9824v1.9824h1.9824v1.9824h2.0052v19.87h-2.0052v1.9824h-1.9824v1.9824h1.9824v1.9824h2.0052v27.799h-15.905v-23.812h-3.9648v23.812z"
               id="path2250" />
            <path
               d="m534.73 49.138v-7.9525h-3.9648v7.9525zm-19.847 37.712v-59.564h29.782v1.9824h1.9824v1.9824h1.9824v1.9824h2.0052v19.87h-2.0052v1.9824h-1.9824v1.9824h1.9824v1.9824h2.0052v27.799h-15.905v-23.812h-3.9648v23.812z"
               id="path2252" />
            <path
               d="m558.63 86.849v-39.694h15.882v39.694zm0-45.664v-13.9h15.882v13.9z"
               id="path2254" />
            <path
               d="m588.46 86.849v-1.9824h-1.9824v-1.9824h-1.9824v-1.9824h-1.9824v-13.9h15.882v5.9473h3.9648v-9.9121h-13.9v-1.9824h-1.9824v-2.0052h-1.9824v-1.9824h-1.9824v-23.835h1.9824v-1.9824h1.9824v-1.9824h1.9824v-1.9824h23.835v1.9824h1.9824v1.9824h1.9824v1.9824h2.0052v13.923h-15.905v-5.9701h-3.9648v9.9349h13.9v1.9824h1.9824v1.9824h1.9824v1.9824h2.0052v23.835h-2.0052v1.9824h-1.9824v1.9824h-1.9824v1.9824z"
               id="path2256" />
          </g>
          <g
             aria-label="&lt;bytes&gt;"
             id="g2274"
             fill="#000000">
            <path
               d="m361.22 123.06h8.1667v8.1667h-8.1667zm8.1667-8.1667h8.1667v8.1667h-8.1667zm8.1667-8.1667h8.1667v8.1667h-8.1667zm0 32.667h8.1667v8.1667h-8.1667zm-8.1667-8.1667h8.1667v8.1667h-8.1667z"
               id="path2260" />
            <path
               d="m434.72 114.89h8.1667v40.833h-8.1667zm-32.667-24.5h8.1667v16.333h24.5v8.1667h-24.5v40.833h24.5v8.1667h-32.667z"
               id="path2262" />
            <path
               d="m459.22 163.89h8.1667v8.1667h-8.1667zm8.1667 8.1667h24.5v8.1667h-24.5zm24.5-65.333h8.1667v65.333h-8.1667v-16.333h-24.5v-8.1667h24.5zm-32.667 0h8.1667v40.833h-8.1667z"
               id="path2264" />
            <path
               d="m524.55 98.556h8.1667v8.1667h16.333v8.1667h-16.333v40.833h-8.1667v-40.833h-8.1667v-8.1667h8.1667zm8.1667 57.167h16.333v8.1667h-16.333z"
               id="path2266" />
            <path
               d="m598.05 147.56h8.1667v8.1667h-8.1667zm-24.5 8.1667h24.5v8.1667h-24.5zm-8.1667-40.833h8.1667v16.333h24.5v-16.333h8.1667v24.5h-32.667v16.333h-8.1667zm8.1667-8.1667h24.5v8.1667h-24.5z"
               id="path2268" />
            <path
               d="m622.55 114.89h8.1667v16.333h-8.1667zm32.667 24.5h8.1667v16.333h-8.1667zm-24.5 16.333h24.5v8.1667h-24.5zm-8.1667-8.1667h8.1667v8.1667h-8.1667zm8.1667-16.333h24.5v8.1667h-24.5zm24.5-16.333h8.1667v8.1667h-8.1667zm-24.5-8.1667h24.5v8.1667h-24.5z"
               id="path2270" />
            <path
               d="m679.72 139.39h8.1667v8.1667h-8.1667zm8.1667-8.1667h8.1667v8.1667h-8.1667zm8.1667-8.1667h8.1667v8.1667h-8.1667zm-8.1667-8.1667h8.1667v8.1667h-8.1667zm-8.1667-8.1667h8.1667v8.1667h-8.1667z"
               id="path2272" />
          </g>
          <g
             aria-label=".com"
             id="g2284"
             fill="#000000">
            <path
               d="m509.23 215.21h10.828v13.105h-10.828z"
               id="path2276" />
            <path
               d="m586.75 225.86q-3.1797 1.8477-6.5742 2.75-3.3516 0.94531-6.875 0.94531-11.172 0-17.488-6.7031-6.2734-6.7031-6.2734-18.562 0-11.859 6.2734-18.562 6.3164-6.7031 17.488-6.7031 3.4805 0 6.7891 0.90235 3.3086 0.90234 6.6602 2.793v8.293q-3.1367-2.793-6.3164-4.0391-3.1367-1.2461-7.1328-1.2461-7.4336 0-11.43 4.8125-3.9961 4.8125-3.9961 13.75 0 8.8945 3.9961 13.75 4.0391 4.8125 11.43 4.8125 4.125 0 7.3906-1.2461 3.2656-1.2891 6.0586-3.9531z"
               id="path2278" />
            <path
               d="m620.57 185.73q-6.0156 0-9.1094 4.6836t-3.0938 13.879q0 9.1523 3.0938 13.879 3.0938 4.6836 9.1094 4.6836 6.0586 0 9.1523-4.6836 3.0938-4.7266 3.0938-13.879 0-9.1953-3.0938-13.879t-9.1523-4.6836zm0-6.7031q10.012 0 15.297 6.4883 5.3281 6.4883 5.3281 18.777 0 12.332-5.2852 18.82-5.2852 6.4453-15.34 6.4453-10.012 0-15.297-6.4453-5.2852-6.4883-5.2852-18.82 0-12.289 5.2852-18.777 5.2852-6.4883 15.297-6.4883z"
               id="path2280" />
            <path
               d="m669.85 228.31v-29.477q0-6.6172-1.0742-9.2383-1.0312-2.6641-3.8242-2.6641-2.75 0-4.4688 4.125-1.6758 4.125-1.6758 11.172v26.082h-7.2617v-36.566q0-8.1211-0.25781-9.9258h6.4023l0.25781 5.457v2.0625h0.0859q1.4609-4.3828 3.6953-6.3594 2.2344-2.0195 5.5859-2.0195 3.7812 0 5.6289 2.0625 1.8906 2.0625 2.707 6.3594h0.0859q1.7188-4.5547 4.082-6.4883 2.4062-1.9336 6.0586-1.9336 5.0703 0 7.2617 3.6953 2.1914 3.6953 2.1914 12.676v30.98h-7.2188v-29.477q0-6.6172-1.0742-9.2383-1.0312-2.6641-3.8242-2.6641-2.8359 0-4.5117 3.6094-1.6328 3.6094-1.6328 10.828v26.941z"
               id="path2282" />
          </g>
        </g>
      </g>
    </g>
    <g
       transform="translate(1.2464 95.95)"
       aria-label="Please wait... Your site experience is loading"
       id="g2372"
       fill="#000000" />
  </g>
</svg>
