<?xml version="1.0" encoding="UTF-8" standalone="no"?>
<!-- Created with Inkscape (http://www.inkscape.org/) -->

<svg
   xmlns:dc="http://purl.org/dc/elements/1.1/"
   xmlns:cc="http://creativecommons.org/ns#"
   xmlns:rdf="http://www.w3.org/1999/02/22-rdf-syntax-ns#"
   xmlns:svg="http://www.w3.org/2000/svg"
   xmlns="http://www.w3.org/2000/svg"
   xmlns:sodipodi="http://sodipodi.sourceforge.net/DTD/sodipodi-0.dtd"
   xmlns:inkscape="http://www.inkscape.org/namespaces/inkscape"
   width="750px"
   height="250px"
   viewBox="0 0 750 250"
   version="1.1"
   id="SVGRoot"
   inkscape:version="0.92.3 (2405546, 2018-03-11)"
   sodipodi:docname="logo-to_path.svg">
  <sodipodi:namedview
     id="base"
     pagecolor="#a4ffff"
     bordercolor="#666666"
     borderopacity="1.0"
     inkscape:pageopacity="0.90196078"
     inkscape:pageshadow="2"
     inkscape:zoom="1.979899"
     inkscape:cx="244.39016"
     inkscape:cy="117.89305"
     inkscape:document-units="px"
     inkscape:current-layer="layer1"
     showgrid="false"
     inkscape:window-width="1655"
     inkscape:window-height="1172"
     inkscape:window-x="466"
     inkscape:window-y="438"
     inkscape:window-maximized="0" />
  <defs
     id="defs3721" />
  <metadata
     id="metadata3724">
    <rdf:RDF>
      <cc:Work
         rdf:about="">
        <dc:format>image/svg+xml</dc:format>
        <dc:type
           rdf:resource="http://purl.org/dc/dcmitype/StillImage" />
        <dc:title></dc:title>
      </cc:Work>
    </rdf:RDF>
  </metadata>
  <g
     inkscape:groupmode="layer"
     id="layer2"
     inkscape:label="background">
    <rect
       style="fill:#a4ffff;fill-opacity:0.90196079"
       id="rect4847"
       width="749.5332"
       height="249.00259"
       x="0"
       y="0.99739671" />
  </g>
  <g
     id="layer1"
     inkscape:groupmode="layer"
     inkscape:label="Layer 1"
     style="display:inline">
    <flowRoot
       xml:space="preserve"
       id="flowRoot3756"
       style="font-style:normal;font-weight:normal;font-size:40px;line-height:1.25;font-family:sans-serif;letter-spacing:0px;word-spacing:0px;fill:#000000;fill-opacity:1;stroke:none"><flowRegion
         id="flowRegion3758"><rect
           id="rect3760"
           width="218.19295"
           height="245.46707"
           x="0"
           y="3.522779" /></flowRegion><flowPara
         id="flowPara3762" /></flowRoot>    <flowRoot
       xml:space="preserve"
       id="flowRoot3780"
       style="font-style:normal;font-variant:normal;font-weight:normal;font-stretch:normal;font-size:40px;line-height:1.25;font-family:PixelOperator;-inkscape-font-specification:PixelOperator;letter-spacing:0px;word-spacing:0px;fill:#000000;fill-opacity:1;stroke:none"><flowRegion
         id="flowRegion3782"
         style="font-style:normal;font-variant:normal;font-weight:normal;font-stretch:normal;font-family:PixelOperator;-inkscape-font-specification:PixelOperator"><rect
           id="rect3784"
           width="382.84781"
           height="104.04572"
           x="364.66507"
           y="138.88322"
           style="font-style:normal;font-variant:normal;font-weight:normal;font-stretch:normal;font-family:PixelOperator;-inkscape-font-specification:PixelOperator" /></flowRegion><flowPara
         id="flowPara3786"
         style="font-style:normal;font-variant:normal;font-weight:normal;font-stretch:normal;font-size:96px;font-family:PixelOperator;-inkscape-font-specification:PixelOperator">&lt;bytes&gt;</flowPara></flowRoot>    <g
       id="g4858">
      <g
         aria-label="jt"
         style="font-style:normal;font-weight:normal;font-size:373.33334351px;line-height:1.25;font-family:sans-serif;letter-spacing:0px;word-spacing:0px;fill:#000000;fill-opacity:1;stroke:none"
         id="text4678">
        <path
           d="m 37.476565,245.11995 v -7.92969 h -7.929688 v -7.92969 h -7.929688 v -7.92968 h -7.929687 v -95.33855 h 63.528647 v 63.52865 H 93.075525 V 86.343903 H 156.69532 V 221.33089 h -8.02084 v 7.92968 h -7.92968 v 7.92969 h -7.92969 v 7.92969 z M 93.075525,62.463694 V 6.8647345 H 156.69532 V 62.463694 Z"
           style="font-style:normal;font-variant:normal;font-weight:normal;font-stretch:normal;font-size:373.33334351px;font-family:Pixeldown;-inkscape-font-specification:Pixeldown;fill:#ff0000;fill-opacity:1"
           id="path5163" />
        <path
           d="m 228.42709,245.11995 v -7.92969 h -7.92969 v -7.92969 h -8.02084 v -7.92968 h -7.92968 V 70.393382 H 188.6875 V 22.72411 h 15.85938 V 6.8647345 h 63.52864 V 22.72411 h 79.47917 V 70.393382 H 268.07552 V 181.5913 h 15.95053 V 86.343903 h 63.52864 V 221.33089 h -7.92968 v 7.92968 h -7.92969 v 7.92969 h -8.02084 v 7.92969 z"
           style="font-style:normal;font-variant:normal;font-weight:normal;font-stretch:normal;font-size:373.33334351px;font-family:Pixeldown;-inkscape-font-specification:Pixeldown;fill:#ff0000;fill-opacity:1"
           id="path5165" />
      </g>
      <g
         aria-label="morris"
         style="font-style:normal;font-weight:normal;font-size:86.66666412px;line-height:1.25;font-family:sans-serif;letter-spacing:0px;word-spacing:0px;fill:#000000;fill-opacity:1;stroke:none"
         id="text4672">
        <path
           d="M 363.76367,86.849319 V 27.285516 h 15.88216 v 3.964844 h 1.98243 v -1.982422 h 1.98242 v -1.982422 h 9.93489 v 1.982422 h 1.98243 v 1.982422 h 3.98763 v -1.982422 h 1.98242 v -1.982422 h 11.91732 v 1.982422 h 1.98242 v 1.982422 h 1.98242 v 1.982422 h 1.98242 V 86.849319 H 403.48047 V 41.185256 h -3.96484 V 86.849319 H 383.61068 V 41.185256 h -3.96485 v 45.664063 z"
           style="font-style:normal;font-variant:normal;font-weight:normal;font-stretch:normal;font-size:93.33333588px;font-family:Pixeldown;-inkscape-font-specification:Pixeldown;fill:#ffad00;fill-opacity:1"
           id="path5168" />
        <path
           d="M 447.23047,72.949579 V 41.185256 h -3.96484 v 31.764323 z m -13.89974,13.89974 v -1.982421 h -1.98242 v -1.982422 h -1.98242 v -1.982422 h -1.98243 V 33.232782 h 1.98243 V 31.25036 h 1.98242 v -1.982422 h 1.98242 v -1.982422 h 23.83464 v 1.982422 h 1.98242 v 1.982422 h 1.98242 v 1.982422 h 2.00521 v 47.669272 h -2.00521 v 1.982422 h -1.98242 v 1.982422 h -1.98242 v 1.982421 z"
           style="font-style:normal;font-variant:normal;font-weight:normal;font-stretch:normal;font-size:93.33333588px;font-family:Pixeldown;-inkscape-font-specification:Pixeldown;fill:#ffad00;fill-opacity:1"
           id="path5170" />
        <path
           d="m 490.98047,49.13773 v -7.952474 h -3.96484 v 7.952474 z m -19.847,37.711589 V 27.285516 h 29.7819 v 1.982422 h 1.98242 v 1.982422 h 1.98242 v 1.982422 h 2.00521 v 19.869792 h -2.00521 v 1.982422 h -1.98242 v 1.982422 h 1.98242 v 1.982422 h 2.00521 V 86.849319 H 490.98047 V 63.03747 h -3.96484 v 23.811849 z"
           style="font-style:normal;font-variant:normal;font-weight:normal;font-stretch:normal;font-size:93.33333588px;font-family:Pixeldown;-inkscape-font-specification:Pixeldown;fill:#ffad00;fill-opacity:1"
           id="path5172" />
        <path
           d="m 534.73047,49.13773 v -7.952474 h -3.96484 v 7.952474 z m -19.847,37.711589 V 27.285516 h 29.7819 v 1.982422 h 1.98242 v 1.982422 h 1.98242 v 1.982422 h 2.00521 v 19.869792 h -2.00521 v 1.982422 h -1.98242 v 1.982422 h 1.98242 v 1.982422 h 2.00521 V 86.849319 H 534.73047 V 63.03747 h -3.96484 v 23.811849 z"
           style="font-style:normal;font-variant:normal;font-weight:normal;font-stretch:normal;font-size:93.33333588px;font-family:Pixeldown;-inkscape-font-specification:Pixeldown;fill:#ffad00;fill-opacity:1"
           id="path5174" />
        <path
           d="M 558.63347,86.849319 V 47.155308 h 15.88216 v 39.694011 z m 0,-45.664063 v -13.89974 h 15.88216 v 13.89974 z"
           style="font-style:normal;font-variant:normal;font-weight:normal;font-stretch:normal;font-size:93.33333588px;font-family:Pixeldown;-inkscape-font-specification:Pixeldown;fill:#ffad00;fill-opacity:1"
           id="path5176" />
        <path
           d="m 588.46094,86.849319 v -1.982421 h -1.98242 v -1.982422 h -1.98243 v -1.982422 h -1.98242 v -13.89974 h 15.88216 v 5.947265 h 3.96485 V 63.03747 h -13.89974 v -1.982422 h -1.98242 V 59.04984 h -1.98243 v -1.982422 h -1.98242 V 33.232782 h 1.98242 V 31.25036 h 1.98243 v -1.982422 h 1.98242 v -1.982422 h 23.83463 v 1.982422 h 1.98243 v 1.982422 h 1.98242 v 1.982422 h 2.00521 v 13.922526 h -15.90495 v -5.970052 h -3.96485 v 9.934896 h 13.89974 v 1.982422 h 1.98243 v 1.982422 h 1.98242 v 1.982422 h 2.00521 v 23.834636 h -2.00521 v 1.982422 H 614.278 v 1.982422 h -1.98243 v 1.982421 z"
           style="font-style:normal;font-variant:normal;font-weight:normal;font-stretch:normal;font-size:93.33333588px;font-family:Pixeldown;-inkscape-font-specification:Pixeldown;fill:#ffad00;fill-opacity:1"
           id="path5178" />
      </g>
      <g
         aria-label="&lt;bytes&gt;"
         style="font-style:normal;font-weight:normal;font-size:130.66667175px;line-height:1;font-family:sans-serif;letter-spacing:0px;word-spacing:0px;fill:#000000;fill-opacity:1;stroke:none"
         id="text4660">
        <path
           d="m 361.2194,154.37045 h 8.16667 v 8.16666 h -8.16667 z m 8.16667,-8.16667 h 8.16667 v 8.16667 h -8.16667 z m 8.16667,-8.16667 h 8.16666 v 8.16667 h -8.16666 z m 0,32.66667 h 8.16666 v 8.16667 h -8.16666 z m -8.16667,-8.16667 h 8.16667 v 8.16667 h -8.16667 z"
           style="font-style:normal;font-variant:normal;font-weight:normal;font-stretch:normal;font-size:130.66667175px;line-height:1;font-family:'Pixel Operator';-inkscape-font-specification:'Pixel Operator'"
           id="path5181" />
        <path
           d="m 434.71941,146.20378 h 8.16666 v 40.83333 h -8.16666 z m -32.66667,-24.5 h 8.16666 v 16.33333 h 24.50001 v 8.16667 H 410.2194 v 40.83333 h 24.50001 v 8.16667 h -32.66667 z"
           style="font-style:normal;font-variant:normal;font-weight:normal;font-stretch:normal;font-size:130.66667175px;line-height:1;font-family:'Pixel Operator';-inkscape-font-specification:'Pixel Operator'"
           id="path5183" />
        <path
           d="m 459.2194,195.20378 h 8.16667 v 8.16667 h -8.16667 z m 8.16667,8.16667 h 24.5 v 8.16667 h -24.5 z m 24.5,-65.33334 h 8.16667 v 65.33334 h -8.16667 v -16.33334 h -24.5 v -8.16666 h 24.5 z m -32.66667,0 h 8.16667 v 40.83334 h -8.16667 z"
           style="font-style:normal;font-variant:normal;font-weight:normal;font-stretch:normal;font-size:130.66667175px;line-height:1;font-family:'Pixel Operator';-inkscape-font-specification:'Pixel Operator'"
           id="path5185" />
        <path
           d="m 524.55274,129.87045 h 8.16667 v 8.16666 h 16.33333 v 8.16667 h -16.33333 v 40.83333 h -8.16667 v -40.83333 h -8.16667 v -8.16667 h 8.16667 z m 8.16667,57.16666 h 16.33333 v 8.16667 h -16.33333 z"
           style="font-style:normal;font-variant:normal;font-weight:normal;font-stretch:normal;font-size:130.66667175px;line-height:1;font-family:'Pixel Operator';-inkscape-font-specification:'Pixel Operator'"
           id="path5187" />
        <path
           d="m 598.05274,178.87045 h 8.16667 v 8.16666 h -8.16667 z m -24.5,8.16666 h 24.5 v 8.16667 h -24.5 z m -8.16667,-40.83333 h 8.16667 v 16.33333 h 24.5 v -16.33333 h 8.16667 v 24.5 h -32.66667 v 16.33333 h -8.16667 z m 8.16667,-8.16667 h 24.5 v 8.16667 h -24.5 z"
           style="font-style:normal;font-variant:normal;font-weight:normal;font-stretch:normal;font-size:130.66667175px;line-height:1;font-family:'Pixel Operator';-inkscape-font-specification:'Pixel Operator'"
           id="path5189" />
        <path
           d="m 622.55274,146.20378 h 8.16667 v 16.33333 h -8.16667 z m 32.66667,24.5 h 8.16667 v 16.33333 h -8.16667 z m -24.5,16.33333 h 24.5 v 8.16667 h -24.5 z m -8.16667,-8.16666 h 8.16667 v 8.16666 h -8.16667 z m 8.16667,-16.33334 h 24.5 v 8.16667 h -24.5 z m 24.5,-16.33333 h 8.16667 v 8.16667 h -8.16667 z m -24.5,-8.16667 h 24.5 v 8.16667 h -24.5 z"
           style="font-style:normal;font-variant:normal;font-weight:normal;font-stretch:normal;font-size:130.66667175px;line-height:1;font-family:'Pixel Operator';-inkscape-font-specification:'Pixel Operator'"
           id="path5191" />
        <path
           d="m 679.7194,170.70378 h 8.16667 v 8.16667 h -8.16667 z m 8.16667,-8.16667 h 8.16667 v 8.16667 h -8.16667 z m 8.16667,-8.16666 h 8.16666 v 8.16666 h -8.16666 z m -8.16667,-8.16667 h 8.16667 v 8.16667 h -8.16667 z m -8.16667,-8.16667 h 8.16667 v 8.16667 h -8.16667 z"
           style="font-style:normal;font-variant:normal;font-weight:normal;font-stretch:normal;font-size:130.66667175px;line-height:1;font-family:'Pixel Operator';-inkscape-font-specification:'Pixel Operator'"
           id="path5193" />
      </g>
    </g>
    <flowRoot
       xml:space="preserve"
       id="flowRoot4629"
       style="font-style:normal;font-weight:normal;font-size:40px;line-height:1.25;font-family:sans-serif;letter-spacing:0px;word-spacing:0px;fill:#000000;fill-opacity:1;stroke:none"><flowRegion
         id="flowRegion4631"><rect
           id="rect4633"
           width="790.4444"
           height="317.69296"
           x="-20.708128"
           y="-42.944241" /></flowRegion><flowPara
         id="flowPara4635"></flowPara></flowRoot>  </g>
</svg>
